<?xml version="1.0" encoding="utf-8"?>
<!-- Generator: Adobe Illustrator 25.0.0, SVG Export Plug-In . SVG Version: 6.00 Build 0)  -->
<svg version="1.1"
	 id="Layer_1" xmlns:inkscape="http://www.inkscape.org/namespaces/inkscape" xmlns:sodipodi="http://sodipodi.sourceforge.net/DTD/sodipodi-0.dtd"
	 xmlns="http://www.w3.org/2000/svg" xmlns:xlink="http://www.w3.org/1999/xlink" x="0px" y="0px" viewBox="0 0 580 580"
	 style="enable-background:new 0 0 580 580;" xml:space="preserve">
<style type="text/css">
	.st0{fill:#A55600;stroke:#EEEEEE;stroke-width:3.408;}
	.st1{fill:#FFFFFF;}
</style>
<g id="g1327">
	<path id="path1329" class="st0" d="M80.2,19.3C41,19.3,19,39.5,19,80.9V507c0,38.7,19.8,59,59,59h428c39.2,0,59-19.3,59-59V80.9
		c0-40.3-19.8-61.6-60.2-61.6C504.8,19.3,80.1,19.1,80.2,19.3z"/>
</g>
<g>
	<path class="st1" d="M464.3,135.4c0-36.2-29.4-65.6-65.6-65.6H188.9c-36.2,0-65.6,29.4-65.6,65.6c0,31.7,22.6,58.2,52.5,64.2v14.4
		c0,17.1,11,31.7,26.2,37.1v240h-13.1c-7.2,0-13.1,5.9-13.1,13.1s5.9,13.1,13.1,13.1h209.8c7.2,0,13.1-5.9,13.1-13.1
		s-5.9-13.1-13.1-13.1h-13.1v-240c15.3-5.4,26.2-20,26.2-37.1v-14.4C441.7,193.5,464.3,167,464.3,135.4L464.3,135.4z M228.2,491.2
		V253.4h131.1v237.8H228.2z M385.6,214.1c0,7.2-5.9,13.1-13.1,13.1H215.1c-7.2,0-13.1-5.9-13.1-13.1v-13.1h183.6V214.1z
		 M398.7,174.7c-7.2,0-13.1-5.9-13.1-13.1c0-7.2,5.9-13.1,13.1-13.1c7.2,0,13.1-5.9,13.1-13.1s-5.9-13.1-13.1-13.1
		c-21.7,0-39.3,17.6-39.3,39.3c0,4.6,0.8,9,2.3,13.1H226c1.5-4.1,2.3-8.5,2.3-13.1c0-21.7-17.6-39.3-39.3-39.3
		c-7.2,0-13.1,5.9-13.1,13.1s5.9,13.1,13.1,13.1c7.2,0,13.1,5.9,13.1,13.1c0,7.2-5.9,13.1-13.1,13.1c-21.7,0-39.3-17.6-39.3-39.3
		S167.2,96,188.9,96h209.8c21.7,0,39.3,17.6,39.3,39.3S420.4,174.7,398.7,174.7z"/>
	<path class="st1" d="M267.6,279.6c-7.2,0-13.1,5.9-13.1,13.1v159.1c0,7.2,5.9,13.1,13.1,13.1c7.2,0,13.1-5.9,13.1-13.1V292.7
		C280.7,285.5,274.8,279.6,267.6,279.6z"/>
	<path class="st1" d="M320,279.6c-7.2,0-13.1,5.9-13.1,13.1v159.1c0,7.2,5.9,13.1,13.1,13.1c7.2,0,13.1-5.9,13.1-13.1V292.7
		C333.1,285.5,327.3,279.6,320,279.6z"/>
</g>
</svg>
