<?xml version="1.0" encoding="utf-8"?>
<!-- Generator: Adobe Illustrator 24.1.1, SVG Export Plug-In . SVG Version: 6.00 Build 0)  -->
<svg version="1.1"
	 id="Layer_1" xmlns:inkscape="http://www.inkscape.org/namespaces/inkscape" xmlns:sodipodi="http://sodipodi.sourceforge.net/DTD/sodipodi-0.dtd"
	 xmlns="http://www.w3.org/2000/svg" xmlns:xlink="http://www.w3.org/1999/xlink" x="0px" y="0px" viewBox="0 0 580 580"
	 style="enable-background:new 0 0 580 580;" xml:space="preserve">
<style type="text/css">
	.st0{fill:#001F8E;stroke:#EEEEEE;stroke-width:3.408;}
	.st1{fill:#FFFFFF;}
</style>
<g id="g1327">
	<path id="path1329" class="st0" d="M86.7,30.1c-37.6,0-58.7,19.4-58.7,59v409.2c0,37.1,19,56.6,56.5,56.6h410.9
		c37.6,0,56.6-18.4,56.6-56.6V89.2c0-38.8-19-59.1-57.7-59.1C494.3,30.1,86.5,29.9,86.7,30.1z"/>
	<path id="path2209" class="st1" d="M439.4,141.1c0-4.8-66.1-8.8-147.9-8.8s-147.9,4-147.9,8.8c42.2,41.3,87.2,81.8,130.7,122.4
		v137.3c-28.1,20-56.6,40.6-85.4,61.1c0,3.4,45.8,6,102.1,6s102.1-2.6,102.1-6c-29.3-21.3-60-43-85.5-61.1V263.4
		C359.7,216.6,390.5,187.7,439.4,141.1z M286.9,239.8l-62.9-58.7c-2.4-2.2-1.7-4,1.6-4H358c3.1,0,4,1.8,1.6,4l-63.5,58.7
		C293.1,242,289.2,242,286.9,239.8z"/>
</g>
</svg>
