<?xml version="1.0" encoding="utf-8"?>
<!-- Generator: Adobe Illustrator 24.1.1, SVG Export Plug-In . SVG Version: 6.00 Build 0)  -->
<svg version="1.1"
	 id="Layer_1" xmlns:inkscape="http://www.inkscape.org/namespaces/inkscape" xmlns:sodipodi="http://sodipodi.sourceforge.net/DTD/sodipodi-0.dtd"
	 xmlns="http://www.w3.org/2000/svg" xmlns:xlink="http://www.w3.org/1999/xlink" x="0px" y="0px" viewBox="0 0 580 580"
	 style="enable-background:new 0 0 580 580;" xml:space="preserve">
<style type="text/css">
	.st0{fill:#001F8E;stroke:#EEEEEE;stroke-width:3.408;}
	.st1{fill-rule:evenodd;clip-rule:evenodd;fill:#FFFFFF;}
</style>
<g id="g1327">
	<path id="path1329" class="st0" d="M84,27.1c-37.8,0-59,19.5-59,59.4v411.6c0,37.3,19.1,56.9,56.8,56.9h413.3
		c37.8,0,56.9-18.5,56.9-56.9V86.5c0-39-19.1-59.5-58-59.5C494,27.1,83.9,26.9,84,27.1z"/>
</g>
<path id="path3407" shape-rendering="auto" color-rendering="auto" image-rendering="auto" class="st1" d="M115.7,173
	c0,0-8.8,68.4,1.6,138.6c5.7,34.6,16.1,69.3,35.5,96.7c20.1,26.5,49.2,45.1,90.2,45.1h22.5c41.5-4.6,68.9-18.8,94.2-52.3
	c10.4-0.8,12.8-1,28.9-4c23.1-5.9,69.9-29.6,90.2-70.9c15.1-43.6,14.8-93-13.7-124.9c-8-8-20.1-15.3-33.8-15.3h-0.8l0,0
	c-13.7,0.8-25,4-36.2,8.8c-0.8-13.7-2.4-21.8-2.4-21.8c0-4-3.3-6.4-7.3-6.4h-261C119.7,166.6,116.6,169,115.7,173z M447.5,241.4
	L447.5,241.4c5.9,23.7,7.5,50-1.6,68.4v0.8l0,0c-11.3,25-37.1,43.5-64.4,49.9c-5.7,4.8,7.4-39.2,8.8-49.2c4-27.4,5.7-53.9,5.7-76.6
	c12.1-6.4,24.1-11.3,35.5-12.1C440,224.3,444.5,234.5,447.5,241.4z"/>
</svg>
