<?xml version="1.0" encoding="utf-8"?>
<!-- Generator: Adobe Illustrator 24.1.1, SVG Export Plug-In . SVG Version: 6.00 Build 0)  -->
<svg version="1.1"
	 id="Layer_1" xmlns:inkscape="http://www.inkscape.org/namespaces/inkscape" xmlns:sodipodi="http://sodipodi.sourceforge.net/DTD/sodipodi-0.dtd"
	 xmlns="http://www.w3.org/2000/svg" xmlns:xlink="http://www.w3.org/1999/xlink" x="0px" y="0px" viewBox="0 0 580 580"
	 style="enable-background:new 0 0 580 580;" xml:space="preserve">
<style type="text/css">
	.st0{fill:#1672A5;stroke:#EEEEEE;stroke-width:3.408;}
	
		.st1{opacity:0.985;fill:#FFFFFF;stroke:#FFFFFF;stroke-width:15;stroke-linecap:round;stroke-linejoin:round;enable-background:new    ;}
	.st2{fill:none;stroke:#FFFFFF;stroke-width:30;stroke-linecap:round;}
	
		.st3{opacity:0.985;fill:#FFFFFF;stroke:#FFFFFF;stroke-width:30;stroke-linecap:round;stroke-linejoin:round;enable-background:new    ;}
	.st4{fill:none;stroke:#FFFFFF;stroke-width:50;}
	.st5{fill:#FFFFFF;}
	.st6{opacity:0.1;fill-rule:evenodd;clip-rule:evenodd;fill:#FFFFFF;enable-background:new    ;}
</style>
<g id="g1327">
	<path id="path1329" class="st0" d="M102.4,38.1C67,38.1,47,56.4,47,93.9v386.4c0,35.1,17.9,53.4,53.4,53.4h388
		c35.4,0,53.4-17.4,53.4-53.4V93.9c0-36.6-18-55.9-54.5-55.9C487.4,38.1,102.3,37.9,102.4,38.1z"/>
</g>
<g id="g3353" transform="translate(20,12)">
	<path id="path3340" sodipodi:nodetypes="csscc" class="st1" d="M385,68.9c-10,3.7-23.7,9.3-28.9,9.3s-9.3-4.2-9.3-9.3
		s4.2-9.3,9.3-9.3C361.1,59.7,375.3,65.5,385,68.9z"/>
	<path id="path3345" sodipodi:nodetypes="csscc" class="st1" d="M376.1,68.9c10,3.7,23.7,9.3,28.9,9.3s9.3-4.2,9.3-9.3
		s-4.2-9.3-9.3-9.3C400,59.7,385.7,65.5,376.1,68.9z"/>
	<path id="path3347" class="st2" d="M380.4,68.5v56.8l0.7,22.1"/>
	
		<path id="path3349" sodipodi:cx="401.44211" sodipodi:cy="125.39394" sodipodi:rx="22.784552" sodipodi:ry="45.569103" sodipodi:type="arc" class="st3" d="
		M399.9,142.5c0,21.6-8.7,39.1-19.5,39.1s-19.5-17.5-19.6-39.1l0,0c0-21.6,8.7-39.1,19.5-39.1S399.9,120.8,399.9,142.5L399.9,142.5z
		"/>
	<path id="path3351" sodipodi:nodetypes="cccc" class="st4" d="M484.7,147.2L332,146.4l-12.1-0.1c-59.6-0.9-55.9,54.9-55.9,54.9"/>
</g>
<path id="path2209" sodipodi:nodetypes="ccsssccccsssccccccc" class="st5" d="M383,263.8h-0.1c0.1-0.1,0.2-0.2,0.2-0.3
	c0-3.3-43.8-5.8-97.7-5.8s-97.7,2.6-97.7,5.8c0,0.1,0.1,0.2,0.2,0.3h-0.2l30.4,232.6h0.1c-0.2,0.1-0.5,0.3-0.5,0.5
	c0,2.2,30.2,3.9,67.5,3.9s67.5-1.7,67.5-3.9c0-0.1-0.1-0.3-0.5-0.5L383,263.8z M332.9,479.3c-1.5,1.4-94.2,0.8-95.7-0.7l-28.9-200.7
	c49.5,0.1,85,2.7,152.3-1.4L332.9,479.3z"/>
<path id="path2381" sodipodi:nodetypes="ccccc" class="st6" d="M200.1,274.1l167.3,1.4l-27.1,214.2l-114.4,1.4L200.1,274.1z"/>
</svg>
