<?xml version="1.0" encoding="utf-8"?>
<!-- Generator: Adobe Illustrator 24.1.1, SVG Export Plug-In . SVG Version: 6.00 Build 0)  -->
<svg version="1.1"
	 id="Layer_1" xmlns:inkscape="http://www.inkscape.org/namespaces/inkscape" xmlns:sodipodi="http://sodipodi.sourceforge.net/DTD/sodipodi-0.dtd"
	 xmlns="http://www.w3.org/2000/svg" xmlns:xlink="http://www.w3.org/1999/xlink" x="0px" y="0px" viewBox="0 0 580 580"
	 style="enable-background:new 0 0 580 580;" xml:space="preserve">
<style type="text/css">
	.st0{fill:#B7A100;stroke:#EEEEEE;stroke-width:3.408;}
	.st1{fill:#FFFFFF;}
	.st2{fill:#734A08;}
</style>
<g id="g1327">
	<path id="path1329" class="st0" d="M97.3,35.1c-36,0-56.3,18.6-56.3,56.7v392.8c0,35.6,18.2,54.3,54.1,54.3h393.6
		c36,0,54.2-17.8,54.2-54.3V91.9c0-37.2-18.2-56.7-55.3-56.7C487.6,35.1,97.1,35,97.3,35.1z"/>
</g>
<path id="path4140" class="st1" d="M429.8,212.4H309.6l28.7,229.4h98.3l29.3-229.4h-22.2l23-79.5l-13.7-4L429.8,212.4z"/>
<path id="path4138" class="st1" d="M241.5,312.7h-80.9c-33.7,1.8-49.9,13.1-47.5,33.7h175.6C290.7,325.7,275.1,314.7,241.5,312.7
	L241.5,312.7z"/>
<path id="path4136" class="st1" d="M160.7,441.9h81.6c33.7-1.6,49.1-12.6,46.8-33.4h-176C111.2,429.3,127,440.4,160.7,441.9z"/>
<path id="flowRoot3192" class="st2" d="M120.7,362.4c-4.2,0-7.7,1.6-10.6,4.4c-3,3-4.4,6.4-4.4,10.2c0,4.4,1.6,8.2,4.4,10.9
	c3,2.8,6.5,4.2,10.6,4.2h160.9c4.2,0,7.7-1.4,10.6-4.2c3-2.8,4.4-6.5,4.4-10.9c0-3.8-1.6-7.3-4.4-10.2c-2.9-2.9-6.5-4.4-10.6-4.4
	H120.7z"/>
</svg>
