<?xml version="1.0" encoding="utf-8"?>
<!-- Generator: Adobe Illustrator 24.1.1, SVG Export Plug-In . SVG Version: 6.00 Build 0)  -->
<svg version="1.1"
	 id="Layer_1" xmlns:inkscape="http://www.inkscape.org/namespaces/inkscape" xmlns:sodipodi="http://sodipodi.sourceforge.net/DTD/sodipodi-0.dtd"
	 xmlns="http://www.w3.org/2000/svg" xmlns:xlink="http://www.w3.org/1999/xlink" x="0px" y="0px" viewBox="0 0 580 580"
	 style="enable-background:new 0 0 580 580;" xml:space="preserve">
<style type="text/css">
	.st0{fill:#FFCE00;stroke:#EEEEEE;stroke-width:3.408;}
	.st1{opacity:0.8;fill:none;stroke:#FFFFFF;stroke-width:64;stroke-linejoin:round;enable-background:new    ;}
	.st2{fill:#4F0000;}
	.st3{opacity:0.8;fill:#FF9700;enable-background:new    ;}
</style>
<g id="g1327">
	<path id="path1329" class="st0" d="M84.1,24.1C45.6,24.1,24,44,24,84.7v419.4c0,38,19.5,58,57.9,58H503c38.4,0,58-19,58-58V84.6
		c0-39.7-19.5-60.6-59.2-60.6C501.8,24.1,84,24,84.1,24.1z"/>
</g>
<path id="path4142" shape-rendering="auto" color-rendering="auto" image-rendering="auto" class="st1" d="M424.5,144.6h-0.1
	c0.3-0.1,0.4-0.4,0.4-0.5c0-4.4-60.5-8-135-8s-135,3.6-135,8c13.5,112,27.3,218.7,41.8,322.4c0,3.1,41.8,5.6,93.2,5.6
	c51.5,0,93.2-2.5,93.2-5.6C395,359.9,410.4,251.5,424.5,144.6L424.5,144.6z"/>
<path id="path4140" class="st2" d="M424.5,144.6h-0.1c0.3-0.1,0.4-0.4,0.4-0.5c0-4.4-60.5-8-135-8s-135,3.6-135,8
	c13.5,112,27.3,218.7,41.8,322.4c0,3.1,41.8,5.6,93.2,5.6c51.5,0,93.2-2.5,93.2-5.6C395,359.9,410.4,251.5,424.5,144.6L424.5,144.6z
	"/>
<path id="path2209" class="st3" d="M356.8,431.8c-2.2,1.9-130.2,1-132.3-0.9l-40-253.6c70.9,49.1,117.5-6.6,210.3-1.8L356.8,431.8z"
	/>
</svg>
