<?xml version="1.0" encoding="utf-8"?>
<!-- Generator: Adobe Illustrator 24.1.1, SVG Export Plug-In . SVG Version: 6.00 Build 0)  -->
<svg version="1.1"
	 id="Layer_1" xmlns:inkscape="http://www.inkscape.org/namespaces/inkscape" xmlns:sodipodi="http://sodipodi.sourceforge.net/DTD/sodipodi-0.dtd"
	 xmlns="http://www.w3.org/2000/svg" xmlns:xlink="http://www.w3.org/1999/xlink" x="0px" y="0px" viewBox="0 0 580 580"
	 style="enable-background:new 0 0 580 580;" xml:space="preserve">
<style type="text/css">
	.st0{fill:#EFC100;stroke:#EEEEEE;stroke-width:3.408;}
	.st1{opacity:0.8;fill:none;stroke:#FFFFFF;stroke-width:64;stroke-linejoin:round;enable-background:new    ;}
	.st2{fill:#734A08;stroke:#EEEEEE;stroke-width:3;stroke-miterlimit:10;}
</style>
<g id="g1327">
	<path id="path1329" class="st0" d="M84.1,24.4c-38.3,0-59.7,19.7-59.7,60.2v416.7c0,37.8,19.3,57.7,57.5,57.7h418.4
		c38.2,0,57.7-18.8,57.7-57.7V84.5c0-39.5-19.3-60.2-58.8-60.2C499.2,24.4,84,24.3,84.1,24.4z"/>
</g>
<path id="path4138" shape-rendering="auto" color-rendering="auto" image-rendering="auto" class="st1" d="M431.5,279.5l-6.6-148.7
	c0-2.8-2.3-5.2-5.2-5.2h-3.4c-2.8,0-5.2,2.3-5.2,5.2l2.5,148.7h-14.8l-3.7-150.3c0-2.8-2.3-5.2-5.2-5.2h-4.4c-2.8,0-5.2,2.3-5.2,5.2
	l2.1,150.3h-18.3l2.1-150.3c0-2.8-2.3-5.2-5.2-5.2h-4.4c-2.8,0-5.2,2.3-5.2,5.2l-3.7,150.3h-14.6l2.5-148.7c0-2.8-2.3-5.2-5.2-5.2
	h-3.4c-2.8,0-5.2,2.3-5.2,5.2l-7.7,148.7c0,44,10.1,60.1,37.4,73.3L346,460.5h54.2l-5.8-107.3C421.7,340,431.5,323.6,431.5,279.5z
	 M276.1,237.1c0-54.2-45.3-113.6-68.9-113.6c-23.5,0-68.9,59.3-68.9,113.6c0,44,19.7,80.6,47.6,93.8l-5.8,129.7h54.2l-5.8-129.4
	C256.1,318.1,276.1,281.1,276.1,237.1z"/>
<path id="path2112" class="st2" d="M431.5,279.5l-6.6-148.7c0-2.8-2.3-5.2-5.2-5.2h-3.4c-2.8,0-5.2,2.3-5.2,5.2l2.5,148.7h-14.8
	l-3.7-150.3c0-2.8-2.3-5.2-5.2-5.2h-4.4c-2.8,0-5.2,2.3-5.2,5.2l2.1,150.3h-18.3l2.1-150.3c0-2.8-2.3-5.2-5.2-5.2h-4.4
	c-2.8,0-5.2,2.3-5.2,5.2l-3.7,150.3h-14.6l2.5-148.7c0-2.8-2.3-5.2-5.2-5.2h-3.4c-2.8,0-5.2,2.3-5.2,5.2l-7.7,148.7
	c0,44,10.1,60.1,37.4,73.3L346,460.5h54.2l-5.8-107.3C421.7,340,431.5,323.6,431.5,279.5z M276.1,237.1
	c0-54.2-45.3-113.6-68.9-113.6c-23.5,0-68.9,59.3-68.9,113.6c0,44,19.7,80.6,47.6,93.8l-5.8,129.7h54.2l-5.8-129.4
	C256.1,318.1,276.1,281.1,276.1,237.1z"/>
</svg>
