<?xml version="1.0" encoding="utf-8"?>
<!-- Generator: Adobe Illustrator 25.0.0, SVG Export Plug-In . SVG Version: 6.00 Build 0)  -->
<svg version="1.1" id="Layer_1" xmlns="http://www.w3.org/2000/svg" xmlns:xlink="http://www.w3.org/1999/xlink" x="0px" y="0px"
	 viewBox="0 0 580 580" style="enable-background:new 0 0 580 580;" xml:space="preserve">
<style type="text/css">
	.st0{opacity:0.8;fill:none;stroke:#FFFFFF;stroke-width:64;stroke-linejoin:round;enable-background:new    ;}
	.st1{fill:#999500;}
</style>
<path id="path4140" shape-rendering="auto" image-rendering="auto" color-rendering="auto" class="st0" d="M272.6,49.8
	c-3,0.1-6.2,0.4-9.6,1c-23,4.9-37,26-48,45c-12,21.3-27.9,39.6-46.7,54.8c-42,65.8-48,137-39.6,207c-15.6,6.4-38.9-16.7-53.6,2
	c-13.9,22.8,5.3,47,18,66c11,21.9,30.4,27.6,53,24c54.8,2.1,110,12.5,164,3.8c61-3.9,120-21.6,153-77c20.6-24.7,57-34.8,69-67
	c8.3-31.8-15.6-68.8-48.9-71.8c-1.2-12.8,21.4,3.9,30-4.6c31.9-7.9-8.3-31-16.8-43C450,146,403,102,354,61c-18-21-26,18-20,31
	c2,21-9-4-13-12C307,62.5,293.8,49.4,272.6,49.8z M275,72.1c31.8,0.4,36,47.7,20.9,60.7h0.1c-21.3,4.5-43-2.4-63-7.1
	C247.2,107.1,255,80.9,275,72.1z M481,264.8c25.6,0.4,38,29.2,20,44.2c-9.8,8-32,30.8-40,22.7C450.1,301.7,440.2,264.7,481,264.8z
	 M472.3,468.5c-47.4,0.2-94.6,5.3-141.3,11.5c-46,7.8-93,6.4-139,1.1c-51-6.4-103-1.4-154,7.2l6.2,39.5c51-8.9,103-13,155-5.9
	c49,5.5,99,4.5,148-3.7c58.9-7.1,119-12.9,178-7.5l2.8-39.9C509.4,469.1,490.9,468.5,472.3,468.5z"/>
<path id="path4170" class="st1" d="M272.6,49.8c-3,0.1-6.2,0.4-9.6,1c-23,4.9-37,26-48,45c-12,21.3-27.9,39.6-46.7,54.8
	c-42,65.8-48,137-39.6,207c-15.6,6.4-38.9-16.7-53.6,2c-13.9,22.8,5.3,47,18,66c11,21.9,30.4,27.6,53,24c54.8,2.1,110,12.5,164,3.8
	c61-3.9,120-21.6,153-77c20.6-24.7,57-34.8,69-67c8.3-31.8-15.6-68.8-48.9-71.8c-1.2-12.8,21.4,3.9,30-4.6c31.9-7.9-8.3-31-16.8-43
	C450,146,403,102,354,61c-18-21-26,18-20,31c2,21-9-4-13-12C307,62.5,293.8,49.4,272.6,49.8z M275,72.1c31.8,0.4,36,47.7,20.9,60.7
	h0.1c-21.3,4.5-43-2.4-63-7.1C247.2,107.1,255,80.9,275,72.1z M481,264.8c25.6,0.4,38,29.2,20,44.2c-9.8,8-32,30.8-40,22.7
	C450.1,301.7,440.2,264.7,481,264.8z M472.3,468.5c-47.4,0.2-94.6,5.3-141.3,11.5c-46,7.8-93,6.4-139,1.1c-51-6.4-103-1.4-154,7.2
	l6.2,39.5c51-8.9,103-13,155-5.9c49,5.5,99,4.5,148-3.7c58.9-7.1,119-12.9,178-7.5l2.8-39.9C509.4,469.1,490.9,468.5,472.3,468.5z"
	/>
</svg>
