<?xml version="1.0" encoding="utf-8"?>
<!-- Generator: Adobe Illustrator 25.0.0, SVG Export Plug-In . SVG Version: 6.00 Build 0)  -->
<svg version="1.1" id="Layer_1" xmlns="http://www.w3.org/2000/svg" xmlns:xlink="http://www.w3.org/1999/xlink" x="0px" y="0px"
	 viewBox="0 0 580 580" style="enable-background:new 0 0 580 580;" xml:space="preserve">
<style type="text/css">
	.st0{opacity:0.8;fill:none;stroke:#FFFFFF;stroke-width:64;stroke-linejoin:round;enable-background:new    ;}
	.st1{fill:#B3B700;stroke:#FF9700;stroke-width:6;stroke-miterlimit:10;}
</style>
<path id="path4136" shape-rendering="auto" image-rendering="auto" color-rendering="auto" class="st0" d="M217,211
	c-48.6,7.6-97,13.9-146,22c-14.3,8.6-0.2,21.6,7.9,28.4l93,89c-7.6,48.6-16.4,97-23,146c3.8,16.2,20.5,7,29.5,1.3l114-61
	c43.7,22.4,87,46,131,68c16.6,1.5,13-17.3,10.4-27.6L410,349c34.8-34.6,71-68,105-104c6.5-15.3-12.5-17.6-23-18.3L364,209
	c-22-43-43-87-66-131c-2-2.3-5-3.6-8.4-3.8c-13,1.7-14,17.2-19.8,26.6L217,211z"/>
<path id="path4631-1" shape-rendering="auto" image-rendering="auto" color-rendering="auto" class="st1" d="M217,211
	c-48.6,7.6-97,13.9-146,22c-14.3,8.6-0.2,21.6,7.9,28.4l93,89c-7.6,48.6-16.4,97-23,146c3.8,16.2,20.5,7,29.5,1.3l114-61
	c43.7,22.4,87,46,131,68c16.6,1.5,13-17.3,10.4-27.6L410,349c34.8-34.6,71-68,105-104c6.5-15.3-12.5-17.6-23-18.3L364,209
	c-22-43-43-87-66-131c-2-2.3-5-3.6-8.4-3.8c-13,1.7-14,17.2-19.8,26.6L217,211z"/>
</svg>
