<?xml version="1.0" encoding="utf-8"?>
<!-- Generator: Adobe Illustrator 25.0.0, SVG Export Plug-In . SVG Version: 6.00 Build 0)  -->
<svg version="1.1" id="Layer_1" xmlns="http://www.w3.org/2000/svg" xmlns:xlink="http://www.w3.org/1999/xlink" x="0px" y="0px"
	 viewBox="0 0 580 580" style="enable-background:new 0 0 580 580;" xml:space="preserve">
<style type="text/css">
	.st0{opacity:0.8;fill:none;stroke:#FFFFFF;stroke-width:64;stroke-linejoin:round;enable-background:new    ;}
	.st1{fill:#727209;}
</style>
<path id="path4134" shape-rendering="auto" image-rendering="auto" color-rendering="auto" class="st0" d="M45.8,235
	c11.6,7,35-4.3,32,7.2c0.2,72-0.3,145,0.2,217c54.4,2.5,118.4,2.2,164.7,1.4c1-24.9,1.6-57,1.6-84h91c0.3,27.5-0.5,55,0.4,82
	c56.2,0.8,117.5,2,164.8,1.2c0.9-69.6,1.6-151.4,1.6-224.8c10.4-0.5,21.3,1.4,31.4-0.4c-0.8-32.7,1.3-71.3,0.3-101
	c-13.1-1.3-34.1-1.8-36.8-0.5c-1.7,10-0.1,20.7-0.6,30.9h-26c-0.6-10.2,1.1-21-0.7-30.9c-11.9,0.9-35.3-1.4-37,1.1
	c-0.3,9.9,0,19.9-0.1,29.8h-26c-0.6-10.2,1.1-21-0.7-30.9c-7.4-2.1-30.7-2.4-37,1.1c0,33-0.5,66,0.3,99c12,6.9,35-4,31.6,8.6v50.9
	h-26c-0.6-10.2,1.1-21-0.7-30.9c-10.4-0.1-35.3-1.4-37,1.1c-0.3,9.9,0,19.9-0.1,29.8h-26c-0.6-10.2,1.1-21-0.7-30.9
	c-10-1.1-35.2-1.2-37.2,0.5c-0.8,10-0.1,20.3-0.3,30.4h-26c-0.6-10.2,1.1-21-0.7-30.9c-10.9-0.1-35.3-1.4-37,1.1
	c-0.3,9.9,0,19.9-0.1,29.8h-26v-58c10.2-0.6,21,1.1,30.9-0.7c-0.2-34,1.7-70.3,0.7-100c-5-2.9-34.1-1.8-36.8-0.5
	c-1.7,10-0.1,20.7-0.6,30.9h-26c-0.6-10.2,1.1-21-0.7-30.9c-7.9-2.2-34.7-2.3-37,1.1c-0.3,9.9,0,19.9-0.1,29.8h-26
	c-0.6-10.2-0.2-21-0.7-30.9c-11.7-2.4-29.3-1-41.5-1.1C43.8,162.4,45.8,202.4,45.8,235z"/>
<path id="path2958-0-6" shape-rendering="auto" image-rendering="auto" color-rendering="auto" class="st1" d="M45.8,235
	c11.6,7,35-4.3,32,7.2c0.2,72-0.3,145,0.2,217c54.4,2.5,118.4,2.2,164.7,1.4c1-24.9,1.6-57,1.6-84h91c0.3,27.5-0.5,55,0.4,82
	c56.2,0.8,117.5,2,164.8,1.2c0.9-69.6,1.6-151.4,1.6-224.8c10.4-0.5,21.3,1.4,31.4-0.4c-0.8-32.7,1.3-71.3,0.3-101
	c-13.1-1.3-34.1-1.8-36.8-0.5c-1.7,10-0.1,20.7-0.6,30.9h-26c-0.6-10.2,1.1-21-0.7-30.9c-11.9,0.9-35.3-1.4-37,1.1
	c-0.3,9.9,0,19.9-0.1,29.8h-26c-0.6-10.2,1.1-21-0.7-30.9c-7.4-2.1-30.7-2.4-37,1.1c0,33-0.5,66,0.3,99c12,6.9,35-4,31.6,8.6v50.9
	h-26c-0.6-10.2,1.1-21-0.7-30.9c-10.4-0.1-35.3-1.4-37,1.1c-0.3,9.9,0,19.9-0.1,29.8h-26c-0.6-10.2,1.1-21-0.7-30.9
	c-10-1.1-35.2-1.2-37.2,0.5c-0.8,10-0.1,20.3-0.3,30.4h-26c-0.6-10.2,1.1-21-0.7-30.9c-10.9-0.1-35.3-1.4-37,1.1
	c-0.3,9.9,0,19.9-0.1,29.8h-26v-58c10.2-0.6,21,1.1,30.9-0.7c-0.2-34,1.7-70.3,0.7-100c-5-2.9-34.1-1.8-36.8-0.5
	c-1.7,10-0.1,20.7-0.6,30.9h-26c-0.6-10.2,1.1-21-0.7-30.9c-7.9-2.2-34.7-2.3-37,1.1c-0.3,9.9,0,19.9-0.1,29.8h-26
	c-0.6-10.2-0.2-21-0.7-30.9c-11.7-2.4-29.3-1-41.5-1.1C43.8,162.4,45.8,202.4,45.8,235z"/>
</svg>
