<?xml version="1.0" encoding="utf-8"?>
<!-- Generator: Adobe Illustrator 25.0.0, SVG Export Plug-In . SVG Version: 6.00 Build 0)  -->
<svg version="1.1" id="Layer_1" xmlns="http://www.w3.org/2000/svg" xmlns:xlink="http://www.w3.org/1999/xlink" x="0px" y="0px"
	 viewBox="0 0 580 580" style="enable-background:new 0 0 580 580;" xml:space="preserve">
<style type="text/css">
	.st0{opacity:0.8;fill:none;stroke:#FFFFFF;stroke-width:64;stroke-linejoin:round;enable-background:new    ;}
	.st1{fill:#515151;}
	.st2{opacity:0.7;fill:#FFFFFF;enable-background:new    ;}
</style>
<path id="path4158" shape-rendering="auto" image-rendering="auto" color-rendering="auto" class="st0" d="M323,52c-4,3-7,5-10,8
	l11,23l-17,9l-8-18.1c-3,3.1-6,5.1-9,7.1s-5,4-7,5c-19,8-44,4-63,12s-32,27-49,35c-22,9-36,1-56,10c-7,4-14,10-20,16l14-7l14,28
	l-18,9l-13-27c-2,2-5,4-7,7l169,352l10-10l-4,2l-14-28l18-9l12,26c1-1,2-2,4-2c2-1,5-2,7-3c16-4,33-1,48-7c18-8,31-28,49-36
	c19-8,44-3,63-12c4-2,9-4,12-7c12-9,21-22,34-29L323,52z M342,119l13,29l-17,8l-14-28L342,119z M373,184l13,28l-17,9l-14-28L373,184
	z M139,217l14,28l-18,9l-13-29L139,217z M403,249l14,28l-18,8l-13-28L403,249z M170,281l14,29l-18,8l-14-28L170,281z M434,313l14,28
	l-18,9l-13-28L434,313z M201,346l13,28l-17,9l-14-29L201,346z M465,378l14,28l-18,8l-14-28L465,378z M232,410l13,29l-17,8l-14-28
	L232,410z"/>
<path id="path4155" class="st1" d="M323,52c-4,3-7,5-10,8l11,23l-17,9l-8-18.1c-3,3.1-6,5.1-9,7.1s-5,4-7,5c-19,8-44,4-63,12
	s-32,27-49,35c-22,9-36,1-56,10c-7,4-14,10-20,16l14-7l14,28l-18,9l-13-27c-2,2-5,4-7,7l169,352l10-10l-4,2l-14-28l18-9l12,26
	c1-1,2-2,4-2c2-1,5-2,7-3c16-4,33-1,48-7c18-8,31-28,49-36c19-8,44-3,63-12c4-2,9-4,12-7c12-9,21-22,34-29L323,52z M342,119l13,29
	l-17,8l-14-28L342,119z M373,184l13,28l-17,9l-14-28L373,184z M139,217l14,28l-18,9l-13-29L139,217z M403,249l14,28l-18,8l-13-28
	L403,249z M170,281l14,29l-18,8l-14-28L170,281z M434,313l14,28l-18,9l-13-28L434,313z M201,346l13,28l-17,9l-14-29L201,346z
	 M465,378l14,28l-18,8l-14-28L465,378z M232,410l13,29l-17,8l-14-28L232,410z"/>
<path id="path4152" class="st2" d="M221,98.2c-19,8-31.7,27.4-49,35c-16.7,7-36.5,1.9-53,8.5l43,91l164-78l-35-73
	c-2.1,1.4-4.7,3.4-7.5,4.4C264,94.5,239.3,90.2,221,98.2z"/>
<path id="path4150" class="st2" d="M169,248l75,157l164-79l-76-157L169,248z"/>
<path id="rect3445" class="st2" d="M251,421l36,76c15.3-4,32.7-1,47.7-7.3c17.6-7.7,30.6-27.4,49-35c18.8-8,43-3.7,62-12.2
	c4.1-1.9,8.8-4.2,12.3-7.1l-44-93L251,421z"/>
</svg>
