<?xml version="1.0" encoding="utf-8"?>
<!-- Generator: Adobe Illustrator 24.1.1, SVG Export Plug-In . SVG Version: 6.00 Build 0)  -->
<svg version="1.1"
	 id="Layer_1" xmlns:inkscape="http://www.inkscape.org/namespaces/inkscape" xmlns:sodipodi="http://sodipodi.sourceforge.net/DTD/sodipodi-0.dtd"
	 xmlns="http://www.w3.org/2000/svg" xmlns:xlink="http://www.w3.org/1999/xlink" x="0px" y="0px" viewBox="0 0 580 580"
	 style="enable-background:new 0 0 580 580;" xml:space="preserve">
<style type="text/css">
	.st0{fill:#009E83;stroke:#EEEEEE;stroke-width:3.408;}
	.st1{opacity:0.8;fill:#FFFFFF;stroke:#FFFFFF;stroke-linejoin:round;enable-background:new    ;}
	.st2{fill:#FFFFFF;}
</style>
<g id="g1327">
	<path id="path1329" class="st0" d="M95.9,39.1C59.4,39.1,39,58,39,96.5v396.7c0,36,18.4,54.8,54.8,54.8h398.4
		c36.4,0,54.8-18,54.8-54.8V96.5c0-37.6-18.4-57.3-56-57.3C491,39.1,95.8,38.9,95.9,39.1z"/>
</g>
<path id="path4142" shape-rendering="auto" color-rendering="auto" image-rendering="auto" class="st1" d="M259,138.2
	c0-10.4,3.3-18.9,10-25.6c6.7-6.6,15.5-9.9,26-9.9c11.3,0,20.9,3.4,28.3,10.5c7.6,7.1,11.3,15,11.3,23.9c0,6.6-1.4,13.1-4.5,19.6
	c-3.1,6.6-7.8,11.8-14.2,15.7c-6.5,4-13,6-19.8,6c-9.2,0-17.7-4-25.6-11.8C262.9,158.5,258.9,149,259,138.2 M218.4,483.2l-0.6-18.8
	l32.5-4.3c4.8-1.4,8.1-3.3,9.9-5.9c3.2-54.8,3.1-109.4,1.7-164.1c-2.1-3-6-5.3-11.6-7.6c-5.6-2.1-15.4-3.7-29.2-4.6v-16.2
	c19.8-1.2,37.3-5.3,52.3-12.4c10.2-4.6,21.3-12.8,33.3-24.6h19.4c-0.1,86.6-0.2,163.9,0.4,233.9c6,2.1,15.7,4.3,29.2,6.4
	c5.2,0.7,9.3,1.7,12.5,3l-0.4,15.9c-8.4,0.6-17.8,0.1-24.9-0.4c-39.9-0.4-69.8-3.4-105.9-0.5c-8.9,0.6-14.9,1.1-18.3,1.1
	L218.4,483.2z"/>
<path id="flowRoot6828-2" class="st2" d="M259,138.2c0-10.4,3.3-18.9,10-25.6c6.7-6.6,15.5-9.9,26-9.9c11.3,0,20.9,3.4,28.3,10.5
	c7.6,7.1,11.3,15,11.3,23.9c0,6.6-1.4,13.1-4.5,19.6c-3.1,6.6-7.8,11.8-14.2,15.7c-6.5,4-13,6-19.8,6c-9.2,0-17.7-4-25.6-11.8
	C262.9,158.5,258.9,149,259,138.2 M218.4,483.2l-0.6-18.8l32.5-4.3c4.8-1.4,8.1-3.3,9.9-5.9c3.2-54.8,3.1-109.4,1.7-164.1
	c-2.1-3-6-5.3-11.6-7.6c-5.6-2.1-15.4-3.7-29.2-4.6v-16.2c19.8-1.2,37.3-5.3,52.3-12.4c10.2-4.6,21.3-12.8,33.3-24.6h19.4
	c-0.1,86.6-0.2,163.9,0.4,233.9c6,2.1,15.7,4.3,29.2,6.4c5.2,0.7,9.3,1.7,12.5,3l-0.4,15.9c-8.4,0.6-17.8,0.1-24.9-0.4
	c-39.9-0.4-69.8-3.4-105.9-0.5c-8.9,0.6-14.9,1.1-18.3,1.1L218.4,483.2z"/>
</svg>
