<?xml version="1.0" encoding="utf-8"?>
<!-- Generator: Adobe Illustrator 24.1.1, SVG Export Plug-In . SVG Version: 6.00 Build 0)  -->
<svg version="1.1"
	 id="Layer_1" xmlns:inkscape="http://www.inkscape.org/namespaces/inkscape" xmlns:sodipodi="http://sodipodi.sourceforge.net/DTD/sodipodi-0.dtd"
	 xmlns="http://www.w3.org/2000/svg" xmlns:xlink="http://www.w3.org/1999/xlink" x="0px" y="0px" viewBox="0 0 580 580"
	 style="enable-background:new 0 0 580 580;" xml:space="preserve">
<style type="text/css">
	.st0{fill:#6032BA;stroke:#EEEEEE;stroke-width:3.408;}
	.st1{fill-rule:evenodd;clip-rule:evenodd;fill:#FFFFFF;stroke:#FFFFFF;stroke-width:18.02;}
	.st2{fill-rule:evenodd;clip-rule:evenodd;fill:#FFFFFF;stroke:#FFFFFF;stroke-width:36.05;}
	.st3{fill-rule:evenodd;clip-rule:evenodd;fill:#FFFFFF;}
</style>
<g id="g1327">
	<path id="path1329" class="st0" d="M104.1,46.1c-35.4,0-55.2,18.3-55.2,55.6v385.1c0,35,17.9,53.2,53.2,53.2h386.7
		c35.4,0,53.2-17.4,53.2-53.2V101.7c0-36.4-17.9-55.6-54.3-55.6C487.8,46.1,104,45.9,104.1,46.1z"/>
</g>
<path id="path2161" class="st1" d="M78.1,480.4H510 M93.2,449.5h401.4 M108.7,418.8h370.5"/>
<path id="path3157" class="st2" d="M108.9,226h370.5 M140.1,230.6v190.6 M201.9,230.6v190.6 M263.6,230.6v190.6 M325.3,230.6v190.6
	 M386.9,230.6v190.6 M448.6,230.6v190.6"/>
<path id="polygon6239" class="st3" d="M109,195.8v-28.1L292.3,90l185.1,76v28.3L290.5,122L109,195.8z M159.1,194.5l134.5-53.8
	l130.8,55.2l-53-0.3L293,167.9L215,193.8L159.1,194.5z"/>
</svg>
