<?xml version="1.0" encoding="utf-8"?>
<!-- Generator: Adobe Illustrator 24.1.1, SVG Export Plug-In . SVG Version: 6.00 Build 0)  -->
<svg version="1.1"
	 id="Layer_1" xmlns:inkscape="http://www.inkscape.org/namespaces/inkscape" xmlns:sodipodi="http://sodipodi.sourceforge.net/DTD/sodipodi-0.dtd"
	 xmlns="http://www.w3.org/2000/svg" xmlns:xlink="http://www.w3.org/1999/xlink" x="0px" y="0px" viewBox="0 0 580 580"
	 style="enable-background:new 0 0 580 580;" xml:space="preserve">
<style type="text/css">
	.st0{fill:#565656;stroke:#EEEEEE;stroke-width:3.408;}
	.st1{fill-rule:evenodd;clip-rule:evenodd;fill:#FFFFFF;}
	.st2{fill-rule:evenodd;clip-rule:evenodd;fill:#FFFFFF;stroke:#FFFFFF;stroke-width:48.49;}
	.st3{fill:#FFFFFF;stroke:#FFFFFF;stroke-width:29.523;stroke-linecap:square;}
</style>
<g id="g1327">
	<path id="path1329" class="st0" d="M96.7,42.1c-36.4,0-56.9,18.8-56.9,57.3v396.7c0,36,18.5,54.9,54.9,54.9h398.3
		c36.4,0,54.9-18,54.9-54.9V99.4c-0.1-37.5-18.6-57.3-56.1-57.3C491.9,42.1,96.6,41.9,96.7,42.1z"/>
</g>
<path id="path828" sodipodi:nodetypes="ccccc" sodipodi:stroke-cmyk="(0.0000000 0.0000000 0.0000000 0.80000001)" class="st1" d="
	M58.7,455.1l471-0.9l-25.6-44.3h-418L58.7,455.1z"/>
<path id="path829" sodipodi:stroke-cmyk="(0.0000000 0.0000000 0.0000000 0.80000001)" class="st2" d="M127.6,415.2V221.7"/>
<path id="path830" sodipodi:stroke-cmyk="(0.0000000 0.0000000 0.0000000 0.80000001)" class="st2" d="M235.7,415.2V221.7"/>
<path id="path832" sodipodi:stroke-cmyk="(0.0000000 0.0000000 0.0000000 0.80000001)" class="st2" d="M351.2,415.2V221.7"/>
<path id="path833" sodipodi:stroke-cmyk="(0.0000000 0.0000000 0.0000000 0.80000001)" class="st2" d="M459.2,415.2V221.7"/>
<path id="path837" sodipodi:stroke-cmyk="(0.0000000 0.0000000 0.0000000 0.80000001)" class="st1" d="M59.8,171.7H530l-232.9-79
	L59.8,171.7z"/>
<rect id="rect3475" x="76.1" y="171.9" class="st3" width="437.5" height="38.9"/>
</svg>
