<?xml version="1.0" encoding="utf-8"?>
<!-- Generator: Adobe Illustrator 25.0.0, SVG Export Plug-In . SVG Version: 6.00 Build 0)  -->
<svg version="1.1" id="Layer_1" xmlns="http://www.w3.org/2000/svg" xmlns:xlink="http://www.w3.org/1999/xlink" x="0px" y="0px"
	 viewBox="0 0 580 580" style="enable-background:new 0 0 580 580;" xml:space="preserve">
<style type="text/css">
	.st0{opacity:0.8;fill:none;stroke:#FFFFFF;stroke-width:64;stroke-linejoin:round;enable-background:new    ;}
	.st1{fill:#727209;}
</style>
<path id="path4133" shape-rendering="auto" image-rendering="auto" color-rendering="auto" class="st0" d="M144,145v49h68l-38,95H67
	v50h87l-49,122h58l50-122h154l50,122h59l-49-122h86v-50H407l-39-95h69v-49H144z M267,194h37l39,95H228L267,194z"/>
<path id="path4136" shape-rendering="auto" image-rendering="auto" color-rendering="auto" class="st1" d="M144,145v49h68l-38,95H67
	v50h87l-49,122h58l50-122h154l50,122h59l-49-122h86v-50H407l-39-95h69v-49H144z M267,194h37l39,95H228L267,194z"/>
</svg>
