<?xml version="1.0" encoding="utf-8"?>
<!-- Generator: Adobe Illustrator 25.0.0, SVG Export Plug-In . SVG Version: 6.00 Build 0)  -->
<svg version="1.1" id="Layer_1" xmlns="http://www.w3.org/2000/svg" xmlns:xlink="http://www.w3.org/1999/xlink" x="0px" y="0px"
	 viewBox="0 0 580 580" style="enable-background:new 0 0 580 580;" xml:space="preserve">
<style type="text/css">
	.st0{opacity:0.8;fill:none;stroke:#FFFFFF;stroke-width:64;stroke-linejoin:round;enable-background:new    ;}
	.st1{fill-rule:evenodd;clip-rule:evenodd;fill:#B26E0D;}
	.st2{fill-rule:evenodd;clip-rule:evenodd;fill:#734A08;}
</style>
<path id="path4148" shape-rendering="auto" image-rendering="auto" color-rendering="auto" class="st0" d="M73,144l-3,36l20,2v197
	H72v18h255l3,4l6-4h109v-18h-87l-98-142l-3,2l-4-44l71,5l2-36L73,144z M126,185l37,3v191h-36L126,185z M199,190l18,2l17,187h-35V190
	z M263,305l51,74h-44L263,305z"/>
<path id="path4150" shape-rendering="auto" image-rendering="auto" color-rendering="auto" class="st0" d="M53.6,433H503v-18H53.6
	L53.6,433z"/>
<path id="path4152" shape-rendering="auto" image-rendering="auto" color-rendering="auto" class="st0" d="M35.8,469H541v-18H35.9
	L35.8,469z"/>
<path id="path4145" shape-rendering="auto" image-rendering="auto" color-rendering="auto" class="st1" d="M73,144l-3,36l20,2v197
	H72v18h255l3,4l6-4h109v-18h-87l-98-142l-3,2l-4-44l71,5l2-36L73,144z M126,185l37,3v191h-36L126,185z M199,190l18,2l17,187h-35V190
	z M263,305l51,74h-44L263,305z"/>
<path id="path4137" shape-rendering="auto" image-rendering="auto" color-rendering="auto" class="st2" d="M53.6,433H503v-18H53.6
	L53.6,433z"/>
<path id="path2161" shape-rendering="auto" image-rendering="auto" color-rendering="auto" class="st2" d="M35.8,469H541v-18H35.9
	L35.8,469z"/>
</svg>
