<?xml version="1.0" encoding="utf-8"?>
<!-- Generator: Adobe Illustrator 25.0.0, SVG Export Plug-In . SVG Version: 6.00 Build 0)  -->
<svg version="1.1" id="Layer_1" xmlns="http://www.w3.org/2000/svg" xmlns:xlink="http://www.w3.org/1999/xlink" x="0px" y="0px"
	 viewBox="0 0 580 580" style="enable-background:new 0 0 580 580;" xml:space="preserve">
<style type="text/css">
	.st0{opacity:0.8;fill:none;stroke:#FFFFFF;stroke-width:64;stroke-linejoin:round;enable-background:new    ;}
	.st1{fill:#FFFFFF;}
	.st2{fill-rule:evenodd;clip-rule:evenodd;fill:#A59100;}
	.st3{opacity:0.1;fill:#734A08;enable-background:new    ;}
</style>
<path id="path4158" shape-rendering="auto" image-rendering="auto" color-rendering="auto" class="st0" d="M307.5,92.6
	c-16.7,6.9-20.2,27.9-24.7,43.3c-4.9-4.5-11.2-6.9-16.9-6.9c-13.9,0-24.6,8.8-32,15.6c-34.3,24.2-62.7,39.6-91.8,47.5
	c-27.9,3.4-55.7-1.6-78.5-3.7c-10.9-0.9-15-0.6-18.7,1.2c-3.9,1.9-6.8,5.6-8.1,9.1c-2.6,7-1.4,13.3-0.1,19.8
	c2.7,13.1,8.4,27.6,19.1,62.8s34.3,99.9,67.8,141s68.8,66.2,105.9,64.7c37.1-1.5,63.4-27.6,72.9-58.5c12.4,12,28.6,20,58.1,21.1
	c29.4,1.1,65.6-19.6,99.2-60.6s55.7-109.7,66.4-144.7c4.3-20.9,25.6-63.8,18.9-82.7c-17-23.8-73.7,2.6-105.2-6.7
	c-37.4-6.8-68.3-28-93.7-47.8C335.3,98.9,320.2,89.4,307.5,92.6z M270.3,150.7c1.3,4.8,2.8,9.4,4.2,14.1c-2.9,9.8-4.3,18.4-6.8,27.5
	c-2.3,30.8-5.3,62.5-4.7,95.4c0.6,32.9,4.6,64.7,11.3,89s9.1,29.6,11.9,34.5c-2.1,8.3-4.5,17.9-5.6,22.1
	c-5.4,12.7-25,34.3-49.9,36.4c-31.7-0.6-62.2-20.6-84.2-45.4c-39.1-51.4-62-113.4-82.2-176.3c-4.7-15-10.6-40.5-10.6-40.5
	c28.3,0.1,68.6,9.9,93.7,2.7c47.7-12.9,70.6-29.5,98.3-50.5C257.8,151.4,264.6,145.4,270.3,150.7L270.3,150.7z M371,226.7
	c-7.3,7.8-26.4,16.1-42.8,12.1c-3.1-1.2-6.3-4.7-7.6-8.7c-4-13.2,14.8-16.8,23-18.5c8.6-1.7,18.4-2.9,28.3-6.1
	C384.2,208.8,373.8,223.6,371,226.7L371,226.7z M447.1,225.4c7.3,10.4,10.5,21.5,14.6,33.2c1.3,4.4,1.5,7.1,0.1,10.1l0,0l0,0
	c-4.4,5.4-14.1,1.5-17.7,0.5c-8.9-2.3-19.3-17.4-19.7-27.2c-0.6-9.7,0.5-21.9,10.1-22.3C439.4,219.4,443.4,221.6,447.1,225.4
	L447.1,225.4z M209.5,274.6c1.7,3.1,5.1,5.6,8.9,5.5c9.4-0.9,14.7-9.9,16.9-18.1c3.6-8.1,11.4-16.6,7.1-25.7
	c-3.2-2.4-6.9-3.3-10.6-3.4C209.1,232.9,196.4,255.9,209.5,274.6L209.5,274.6z M105.4,276.1c10.2,10.8,28.9,21.6,41.9,25.3
	c11.4,5,20.5-10.2,15.3-19.7c-10.9-10.1-24.4-23.3-38.7-23.1C114.2,258.4,103.9,265.8,105.4,276.1z M413,343.4
	c5.9,9.9,3.9,28.1-5.7,24.2c-36.6-30-37.1-25-78.1-16.6c-2.4-7.3,3.3-15.5,8.4-18.8c10-7.7,21.9-12.7,33.4-12.7
	C387.1,319.8,403,330,413,343.4z M235.1,359.9c-10.5,18-30.5,32.1-52.2,29.4c-9.3-0.9-20.5-9.7-28.4-1c7.2,13.3,21.4,22.2,36.3,24.2
	c23.6,1.8,42.3-5,55.6-22.9c6.8-8,11.9-17.5,13.3-28c2.1-7.9,3.7-18.8-6.6-21.3C242.7,337.8,241.5,353.8,235.1,359.9z"/>
<path id="path4144" class="st1" d="M266,138.6c-9.3,0-19.5,7.4-26,13.5c-27.7,21.4-48.5,36.8-95.4,49.4c-17.7,5.3-53.4-1.1-89.7-3.6
	c-22.6-3.5-3.2,36.9-0.2,53.3c20,62.9,42.9,126.7,84,179.1c23.3,25.7,55.3,48.5,91.6,48.6c39.9-10.3,57.6-37.1,66-69.8
	c-5.7-9.6-8.9-18.5-11.4-28.2c-16.2-60.7-15.3-124.8-8.2-186.7c2.1-9.9,4.6-19.8,7.3-29.5c-1.9-6.2-3.7-12.4-5.5-18.7
	C275.3,141.4,268.2,138.6,266,138.6z"/>
<path id="path3354" shape-rendering="auto" image-rendering="auto" color-rendering="auto" class="st2" d="M307.5,92.6
	c-16.7,6.9-20.2,27.9-24.7,43.3c-4.9-4.5-11.2-6.9-16.9-6.9c-13.9,0-24.6,8.8-32,15.6c-34.3,24.2-62.7,39.6-91.8,47.5
	c-27.9,3.4-55.7-1.6-78.5-3.7c-10.9-0.9-15-0.6-18.7,1.2c-3.9,1.9-6.8,5.6-8.1,9.1c-2.6,7-1.4,13.3-0.1,19.8
	c2.7,13.1,8.4,27.6,19.1,62.8s34.3,99.9,67.8,141s68.8,66.2,105.9,64.7c37.1-1.5,63.4-27.6,72.9-58.5c12.4,12,28.6,20,58.1,21.1
	c29.4,1.1,65.6-19.6,99.2-60.6s55.7-109.7,66.4-144.7c4.3-20.9,25.6-63.8,18.9-82.7c-17-23.8-73.7,2.6-105.2-6.7
	c-37.4-6.8-68.3-28-93.7-47.8C335.3,98.9,320.2,89.4,307.5,92.6z M270.3,150.7c1.3,4.8,2.8,9.4,4.2,14.1c-2.9,9.8-4.3,18.4-6.8,27.5
	c-2.3,30.8-5.3,62.5-4.7,95.4c0.6,32.9,4.6,64.7,11.3,89s9.1,29.6,11.9,34.5c-2.1,8.3-4.5,17.9-5.6,22.1
	c-5.4,12.7-25,34.3-49.9,36.4c-31.7-0.6-62.2-20.6-84.2-45.4c-39.1-51.4-62-113.4-82.2-176.3c-4.7-15-10.6-40.5-10.6-40.5
	c28.3,0.1,68.6,9.9,93.7,2.7c47.7-12.9,70.6-29.5,98.3-50.5C257.8,151.4,264.6,145.4,270.3,150.7L270.3,150.7z M371,226.7
	c-7.3,7.8-26.4,16.1-42.8,12.1c-3.1-1.2-6.3-4.7-7.6-8.7c-4-13.2,14.8-16.8,23-18.5c8.6-1.7,18.4-2.9,28.3-6.1
	C384.2,208.8,373.8,223.6,371,226.7L371,226.7z M447.1,225.4c7.3,10.4,10.5,21.5,14.6,33.2c1.3,4.4,1.5,7.1,0.1,10.1l0,0l0,0
	c-4.4,5.4-14.1,1.5-17.7,0.5c-8.9-2.3-19.3-17.4-19.7-27.2c-0.6-9.7,0.5-21.9,10.1-22.3C439.4,219.4,443.4,221.6,447.1,225.4
	L447.1,225.4z M209.5,274.6c1.7,3.1,5.1,5.6,8.9,5.5c9.4-0.9,14.7-9.9,16.9-18.1c3.6-8.1,11.4-16.6,7.1-25.7
	c-3.2-2.4-6.9-3.3-10.6-3.4C209.1,232.9,196.4,255.9,209.5,274.6L209.5,274.6z M105.4,276.1c10.2,10.8,28.9,21.6,41.9,25.3
	c11.4,5,20.5-10.2,15.3-19.7c-10.9-10.1-24.4-23.3-38.7-23.1C114.2,258.4,103.9,265.8,105.4,276.1z M413,343.4
	c5.9,9.9,3.9,28.1-5.7,24.2c-36.6-30-37.1-25-78.1-16.6c-2.4-7.3,3.3-15.5,8.4-18.8c10-7.7,21.9-12.7,33.4-12.7
	C387.1,319.8,403,330,413,343.4z M235.1,359.9c-10.5,18-30.5,32.1-52.2,29.4c-9.3-0.9-20.5-9.7-28.4-1c7.2,13.3,21.4,22.2,36.3,24.2
	c23.6,1.8,42.3-5,55.6-22.9c6.8-8,11.9-17.5,13.3-28c2.1-7.9,3.7-18.8-6.6-21.3C242.7,337.8,241.5,353.8,235.1,359.9z"/>
<path id="path3327-8" class="st3" d="M266,138.6c-9.3,0-19.5,7.4-26,13.5c-27.7,21.4-48.5,36.8-95.4,49.4
	c-17.7,5.3-53.4-1.1-89.7-3.6c-22.6-3.5-3.2,36.9-0.2,53.3c20,62.9,42.9,126.7,84,179.1c23.3,25.7,55.3,48.5,91.6,48.6
	c39.9-10.3,57.6-37.1,66-69.8c-5.7-9.6-8.9-18.5-11.4-28.2c-16.2-60.7-15.3-124.8-8.2-186.7c2.1-9.9,4.6-19.8,7.3-29.5
	c-1.9-6.2-3.7-12.4-5.5-18.7C275.3,141.4,268.2,138.6,266,138.6z"/>
</svg>
