<?xml version="1.0" encoding="utf-8"?>
<!-- Generator: Adobe Illustrator 24.1.1, SVG Export Plug-In . SVG Version: 6.00 Build 0)  -->
<svg version="1.1"
	 id="Layer_1" xmlns:inkscape="http://www.inkscape.org/namespaces/inkscape" xmlns:sodipodi="http://sodipodi.sourceforge.net/DTD/sodipodi-0.dtd"
	 xmlns="http://www.w3.org/2000/svg" xmlns:xlink="http://www.w3.org/1999/xlink" x="0px" y="0px" viewBox="0 0 580 580"
	 style="enable-background:new 0 0 580 580;" xml:space="preserve">
<style type="text/css">
	.st0{fill:#005B2B;stroke:#EEEEEE;stroke-width:3.408;}
	.st1{fill:#FFFFFF;}
</style>
<g id="g1327">
	<path id="path1329" class="st0" d="M85.3,26.1c-37.9,0-59.2,19.6-59.2,59.7v413.1c0,37.5,19.2,57.1,57.1,57.1h414.8
		c37.9,0,57.1-18.7,57.1-57.1V85.8c0-39.2-19.2-59.7-58.3-59.7C496.7,26.1,85.1,25.9,85.3,26.1z"/>
</g>
<g>
	<g transform="translate(0.000000,511.000000) scale(0.100000,-0.100000)">
		<path class="st1" d="M1987.1,3466.4c-134.6-29.9-226.5-106.3-321.5-265.9c-32.2-53.1-57.2-97.6-55.6-99c0.8-0.8,33,6.5,70.9,17.8
			c269.9,78.2,605.1,13.7,833.8-160.4l58-44.3v132.1c0,172.4-9.7,200.6-91.9,283.6c-62,62-136.2,103.9-226.5,128.1
			C2186.8,3476.9,2049.1,3481,1987.1,3466.4z"/>
		<path class="st1" d="M3636.2,3466.4c-112-22.6-206.3-73.3-277.2-149.9c-67.7-72.5-77.4-107.1-77.4-269.9v-132.1l58.8,44.3
			c228.1,174,562.3,238.4,833,160.4c37.8-11.3,70.1-18.6,70.9-17.8c1.6,1.6-23.4,45.9-55.6,99c-95.8,161.2-188.5,236.8-324.7,265.9
			C3798.2,3481,3707.1,3481,3636.2,3466.4z"/>
		<path class="st1" d="M1741.3,3062.8c-127.3-22.6-240-82.2-314.2-164.4c-79.8-88.7-209.5-315.8-350.5-614
			c-45.9-98.2-92.7-204.7-103.1-236c-116.8-346.5,4-734.8,296.4-955.6c348.9-263.5,833.8-226.5,1133.6,87.1
			c121.6,125.7,195.8,264.3,228.1,424.7l10.5,48.3l25-44.3c31.5-55.6,71.7-91.1,139.4-123.3c45.1-21,61.2-24.2,120.8-24.2
			s75.8,3.2,120.8,24.2c67.7,32.2,107.9,67.7,139.4,123.3l25,44.3l10.5-48.3c20.2-102.4,74.1-230.5,132.1-315
			c71.7-103.9,216.8-228.1,333.6-286.9c119.2-58.8,273.1-90.3,415-83.8c378.6,17.8,695.2,275.6,795.2,647.8
			c19.4,70.1,21.8,93.5,21.8,211.9c0,175.6-14.5,229.6-124.1,464.9c-140.2,302.9-285.3,561.6-365,651
			c-154.7,174-441.5,226.5-751,137c-208.7-60.4-395.6-185.3-448.7-299.7c-9.7-21-19.4-40.2-20.2-41.8c-0.8-1.6-17,10.5-35.4,26.6
			c-116.8,99.8-381.1,99.8-497.9,0c-18.6-16.1-34.7-28.1-35.4-26.6c-0.8,1.6-10.5,21-20.2,41.8
			C2522,2947.6,2060.3,3120.8,1741.3,3062.8z M1933,2346.5c74.1-18.6,188.5-79.8,244.9-130.5c128.1-116,195.8-265.9,196.6-433.4
			c0-177.2-58.8-312.6-190.9-436.6c-103.1-95-221.6-145.1-364.1-153.1c-325.5-17.8-598.6,228.7-614.7,554.2
			c-4.8,108.7,11.3,186.1,58.8,285.3C1385.2,2283.7,1663.9,2414.2,1933,2346.5z M4210.8,2345.7c112.8-28.1,228.7-102.3,306.1-195
			c49.9-59.6,105.5-174.1,123.3-254.6c9.7-47.5,12.1-85.4,9.7-149.1c-7.3-147.5-62.8-274-166.7-379.4
			c-186.1-189.3-457.6-230.5-697.7-106.3c-66.9,35.5-186.9,150.7-227.3,219.2c-82.2,140.2-102.4,329.5-50.7,478.6
			c58.8,173.2,193.4,310.2,364.1,372.2C3969.8,2367.5,4105.1,2373.2,4210.8,2345.7z M2972.5,1919.5
			c121.6-35.5,158.8-185.3,68.5-273.1c-117.6-115.2-312.6-2.4-271.5,157.2c13.7,52.3,58.8,99.8,109.5,116
			C2925.6,1934,2925.6,1934,2972.5,1919.5z"/>
		<path class="st1" d="M1391.7,1795.4c-34.7-15.3-51.5-47.5-51.5-100.8c0-190.9,144.2-355.2,337.6-384.3
			c99.8-15.3,153.9,13.7,153.9,83c0,50.7-29.9,74.9-100.8,82.2c-135.4,13.7-208.7,87.1-221.6,220c-4.8,48.3-9.7,64.5-25.8,79.8
			C1461.7,1797,1418.2,1806.7,1391.7,1795.4z"/>
		<path class="st1" d="M3655.6,1787.3c-47.5-29.1-54.8-112-18.6-217.6c31.5-91,110.3-180.4,195-221.6c42.7-21,136.2-45.1,177.2-45.1
			c86.3,0,131.3,89.5,73.3,147.5c-15.3,15.3-31.5,21-77.4,25c-72.5,7.3-117.6,28.1-159.6,74.1c-40.2,44.3-54.8,75.8-61.2,137.8
			c-6.5,62.8-16.1,85.4-42.8,101.6C3711.2,1806.7,3686.3,1805.9,3655.6,1787.3z"/>
	</g>
</g>
</svg>
