<?xml version="1.0" encoding="utf-8"?>
<!-- Generator: Adobe Illustrator 25.0.0, SVG Export Plug-In . SVG Version: 6.00 Build 0)  -->
<svg version="1.1" id="Layer_1" xmlns="http://www.w3.org/2000/svg" xmlns:xlink="http://www.w3.org/1999/xlink" x="0px" y="0px"
	 viewBox="0 0 580 580" style="enable-background:new 0 0 580 580;" xml:space="preserve">
<style type="text/css">
	.st0{opacity:0.8;fill:none;stroke:#FFFFFF;stroke-width:64;stroke-linejoin:round;enable-background:new    ;}
	.st1{fill:#A36C1C;}
</style>
<g id="g4143">
	<path id="path4151" shape-rendering="auto" image-rendering="auto" color-rendering="auto" class="st0" d="M112,362
		c-3-5-15-12-21-14c-8-2-22,8-11,15l-3,7c-9-5-11.2-18-10-27c0-6,6-13,8-19c7-17,12-34,17-51c2-7,3-20,9-25c5-4,14-5,20-8
		c5-2,8-7,13-8c11-4,21-3,26-14c11,16,20,31,22,51c1,15-8,29-12,43c-2,10-1,19-4,29c-3,12-9,23-12,34c-2,8,0,16-2,22
		c-4,12-27,20-24,35c1,7,9,8,15,10c14,2,28,1,42-1c4-1,9,0,13-4c8-8-2-24,1-34c2-7,9-13,12-19c8-14,14-29,18-44h2c0,13,3,30,8,42
		c4,8,12,19,12,28c-1,15-23,24-12,42c10,17,36-1,49-4c8-1,18,1,21-8c5-12-5-24-7-36c-2-13,1-27-2-40c-1-10-9-21-9-31c0-7,5-15,6-22
		l44,20l19,11c0,10,0,22,1,31c1,5,5,9,4,14c-2,9-25,19-20,29c3,5,11,7,16,8c14,4,49,9,59-4c5-5,4-15,4-21c0-18,2-36-2-52
		c15,9,18,27,26,42c2,6,8,14,6,20c-3,9-31,24-18,36c4,4,10,4,15,5c13,4,53,11,60-7c5-16,4-45,0-62c-3-10-8-18-9-29c-1-9,6-19,6-28
		c1-14-3-26-3-38c0-9,2-17,2-26c13,34,0,70,9,104c1,5,2,33,12,30c3-1,5-7,4-10c-3-14-9-26-9-41c0-7,3-14,4-22c4-42,11-102-25-133
		c-17-14-34-24-52-36c-14-9-29-19-45-23c-13-2-26,1-38,1c-27-1-54-7-81-9c-12-1-25,1-37-1c-27-5-46-25-73-32c-8-2-22-1-31,1
		c-8,1-12,7-18,11c-18,13-42,34-52,54c-6.2,13-7,29-11,43c-5,19-16.4,36-20,56c-3.1,22,2,44,2,66c0,16-9,36-3.2,52
		c8.1,22,51.2,29,54.2,0C103,373,116,371,112,362z"/>
	<path id="path6" class="st1" d="M112,362c-3-5-15-12-21-14c-8-2-22,8-11,15l-3,7c-9-5-11.2-18-10-27c0-6,6-13,8-19
		c7-17,12-34,17-51c2-7,3-20,9-25c5-4,14-5,20-8c5-2,8-7,13-8c11-4,21-3,26-14c11,16,20,31,22,51c1,15-8,29-12,43c-2,10-1,19-4,29
		c-3,12-9,23-12,34c-2,8,0,16-2,22c-4,12-27,20-24,35c1,7,9,8,15,10c14,2,28,1,42-1c4-1,9,0,13-4c8-8-2-24,1-34c2-7,9-13,12-19
		c8-14,14-29,18-44h2c0,13,3,30,8,42c4,8,12,19,12,28c-1,15-23,24-12,42c10,17,36-1,49-4c8-1,18,1,21-8c5-12-5-24-7-36
		c-2-13,1-27-2-40c-1-10-9-21-9-31c0-7,5-15,6-22l44,20l19,11c0,10,0,22,1,31c1,5,5,9,4,14c-2,9-25,19-20,29c3,5,11,7,16,8
		c14,4,49,9,59-4c5-5,4-15,4-21c0-18,2-36-2-52c15,9,18,27,26,42c2,6,8,14,6,20c-3,9-31,24-18,36c4,4,10,4,15,5c13,4,53,11,60-7
		c5-16,4-45,0-62c-3-10-8-18-9-29c-1-9,6-19,6-28c1-14-3-26-3-38c0-9,2-17,2-26c13,34,0,70,9,104c1,5,2,33,12,30c3-1,5-7,4-10
		c-3-14-9-26-9-41c0-7,3-14,4-22c4-42,11-102-25-133c-17-14-34-24-52-36c-14-9-29-19-45-23c-13-2-26,1-38,1c-27-1-54-7-81-9
		c-12-1-25,1-37-1c-27-5-46-25-73-32c-8-2-22-1-31,1c-8,1-12,7-18,11c-18,13-42,34-52,54c-6.2,13-7,29-11,43c-5,19-16.4,36-20,56
		c-3.1,22,2,44,2,66c0,16-9,36-3.2,52c8.1,22,51.2,29,54.2,0C103,373,116,371,112,362z"/>
</g>
</svg>
