<?xml version="1.0" encoding="utf-8"?>
<!-- Generator: Adobe Illustrator 24.1.1, SVG Export Plug-In . SVG Version: 6.00 Build 0)  -->
<svg version="1.1"
	 id="Layer_1" xmlns:inkscape="http://www.inkscape.org/namespaces/inkscape" xmlns:sodipodi="http://sodipodi.sourceforge.net/DTD/sodipodi-0.dtd"
	 xmlns="http://www.w3.org/2000/svg" xmlns:xlink="http://www.w3.org/1999/xlink" x="0px" y="0px" viewBox="0 0 580 580"
	 style="enable-background:new 0 0 580 580;" xml:space="preserve">
<style type="text/css">
	.st0{opacity:0.1;enable-background:new    ;}
</style>
<g id="g1327">
</g>
<path id="path2838" sodipodi:nodetypes="csssssssssc" d="M61.4,397.5c2.2-5,29.5-43.6,60.7-85.7c44.8-60.5,67.9-81.4,109.2-99.2
	c64.7-27.8,129.5-29.4,153.1-3.8c55.8,60.7,113.4,130,130,156.4c23.4,37.2,11.5,54.7-13.2,19.3c-9.7-13.9-37-47.2-60.6-73.9
	c-101.1-114.5-101.4-114.6-195.3-74.7c-46.1,19.7-64.1,35.9-103.1,93.5c-26,38.3-55.7,71.4-66,73.4
	C65.9,404.9,59.2,402.5,61.4,397.5z"/>
<path id="path3593" sodipodi:nodetypes="cssscccc" class="st0" d="M61.4,397.5c2.2-5,29.5-43.6,60.7-85.7
	c44.8-60.5,67.9-81.4,109.2-99.2c64.7-27.8,129.5-29.4,153.1-3.8c55.8,60.7,113.4,130,130,156.4c31.3,50.7-20.6,56.6-158.4,60
	c-73.3,2.1-77.6,0.8-153.7,1.6C166.8,425.8,60.1,408.8,61.4,397.5L61.4,397.5z"/>
<path id="path3638" sodipodi:nodetypes="cssssc" d="M167.2,403.9c0-29.4,82.1-122.6,108-122.6c41.5,0,84.5,25.7,115.8,69.3
	c18.5,25.7,33.6,49.6,33.6,53.1c0,3.5-57.9,6.3-128.7,6.3S167.2,407.2,167.2,403.9z"/>
</svg>
