<?xml version="1.0" encoding="utf-8"?>
<!-- Generator: Adobe Illustrator 24.1.1, SVG Export Plug-In . SVG Version: 6.00 Build 0)  -->
<svg version="1.1"
	 id="Layer_1" xmlns:inkscape="http://www.inkscape.org/namespaces/inkscape" xmlns:sodipodi="http://sodipodi.sourceforge.net/DTD/sodipodi-0.dtd"
	 xmlns="http://www.w3.org/2000/svg" xmlns:xlink="http://www.w3.org/1999/xlink" x="0px" y="0px" viewBox="0 0 580 580"
	 style="enable-background:new 0 0 580 580;" xml:space="preserve">
<style type="text/css">
	.st0{fill:#0094BC;stroke:#EEEEEE;stroke-width:3.408;}
	.st1{fill:none;stroke:#FFFFFF;stroke-width:22.853;stroke-linejoin:round;}
	
		.st2{opacity:0.1;fill-rule:evenodd;clip-rule:evenodd;fill:#FFFFFF;stroke:#FFFFFF;stroke-width:22.853;stroke-linecap:round;stroke-linejoin:round;enable-background:new    ;}
	.st3{fill:#FFFFFF;}
	.st4{fill:none;stroke:#FFFFFF;stroke-width:34.28;stroke-linecap:round;stroke-linejoin:round;}
	
		.st5{opacity:0.5;fill:#FFFFFF;stroke:#FFFFFF;stroke-width:36.06;stroke-linecap:round;stroke-linejoin:round;enable-background:new    ;}
</style>
<g id="g1327">
	<path id="path1329" class="st0" d="M85.4,19.1c-38,0-59.3,19.6-59.3,59.8v413.8c0,37.6,19.2,57.2,57.2,57.2h415.6
		c38,0,57.2-18.7,57.2-57.2V78.9c0-39.1-19.3-59.8-58.4-59.8C497.6,19.1,85.3,18.9,85.4,19.1z"/>
</g>
<path id="path3243" sodipodi:nodetypes="ccccc" class="st1" d="M170.9,120.6c-1.7,9.8-91.8,395.1-91.8,395.1l424.2-3.6l-92-393.1
	L170.9,120.6z"/>
<path id="path3163" sodipodi:nodetypes="ccccc" class="st2" d="M170.9,120.6c-1.7,9.8-91.8,395.1-91.8,395.1l424.2-3.6l-92-393.1
	L170.9,120.6z"/>
<g id="g5004" transform="matrix(1.2993468,0,0,1.1426251,-301.5384,133.33861)">
	<path id="text2413" class="st3" d="M465.4,147.3c0.2,0.1,1,0.2,2.3,0.6c21.5,3.6,37.7,10,48.5,19.5c10.8,9.5,16.3,21.9,16.3,37.1
		c0,15.6-5.9,29.2-17.8,40.7c-11.9,11.5-28.3,17.7-49.4,18.7v24.3h-16.8v-24c-21.4-2-37.9-7.9-49.4-17.7
		c-11.5-9.7-18-23.4-19.4-40.9l28.3-4.2c2.2,13.2,6.7,23.3,13.4,30.4c6.7,7.1,15.7,11.1,27,12.2v-76.5
		c-21.3-3.9-37.4-10.5-47.9-19.6s-15.9-21-15.9-35.3c0-14.3,5.2-26.6,15.7-36.9c10.5-10.3,26.5-16.2,48.1-17.8V46.1h16.8v11.5
		c17.8,1.6,32,6.4,42.3,14.4c10.3,8.1,16.7,19.4,19.4,34l-29.4,3.6c-1.7-9-5.2-16.3-10.6-21.5c-5.4-5.2-12.6-8.7-21.6-10.3v69.6
		H465.4z M448.6,144.3V77.6c-11.5,1.7-20.2,5.6-26.3,11.7c-6.1,6.1-9.1,13.2-9.1,21.2c0,9.1,3.1,16.4,9.5,21.7
		C428.8,137.4,437.5,141.5,448.6,144.3L448.6,144.3z M465.4,243.8c11-1.4,20.1-5.5,27.3-12.3c7.1-6.7,10.7-15.2,10.7-25.4
		c0-9-2.7-16.2-8.1-21.7c-5.5-5.5-15.4-10.1-29.9-13.9L465.4,243.8L465.4,243.8z"/>
</g>
<path id="path4370" sodipodi:nodetypes="cc" class="st4" d="M291.2,182v278.4"/>
<path id="rect7186" sodipodi:nodetypes="ccccccccc" class="st5" d="M83.1,63.1v96h77.4c6.1-22.3,10.1-55.2,10.4-57l240.5-1.6
	l11.3,58.6h76.3V63.1H83.1z"/>
</svg>
