<?xml version="1.0" encoding="utf-8"?>
<!-- Generator: Adobe Illustrator 24.1.1, SVG Export Plug-In . SVG Version: 6.00 Build 0)  -->
<svg version="1.1"
	 id="Layer_1" xmlns:inkscape="http://www.inkscape.org/namespaces/inkscape" xmlns:sodipodi="http://sodipodi.sourceforge.net/DTD/sodipodi-0.dtd"
	 xmlns="http://www.w3.org/2000/svg" xmlns:xlink="http://www.w3.org/1999/xlink" x="0px" y="0px" viewBox="0 0 580 580"
	 style="enable-background:new 0 0 580 580;" xml:space="preserve">
<style type="text/css">
	.st0{fill:#001F8E;stroke:#EEEEEE;stroke-width:3.408;}
	.st1{opacity:0.2;fill-rule:evenodd;clip-rule:evenodd;fill:#FFFFFF;stroke:#FFFFFF;stroke-width:1.241;enable-background:new    ;}
	.st2{fill:#FFFFFF;stroke:#FFFFFF;stroke-width:4.9999;stroke-linecap:round;stroke-linejoin:round;stroke-miterlimit:5.824;}
	.st3{fill:none;stroke:#FFFFFF;stroke-width:11.6479;stroke-linejoin:round;stroke-miterlimit:5.824;}
	.st4{display:none;fill:none;stroke:#FFFFFF;stroke-width:46.16;stroke-linecap:round;stroke-linejoin:round;}
</style>
<g id="g1327">
	<path id="path1329" class="st0" d="M82.3,29.1c-38,0-59.3,19.6-59.3,59.7v413.9c0,37.5,19.2,57.3,57.1,57.3h415.6
		c38,0,57.3-18.6,57.3-57.3V88.8c0-39.2-19.2-59.8-58.3-59.8C494.7,29.1,82.2,28.9,82.3,29.1z"/>
</g>
<path id="path645" sodipodi:nodetypes="cccccccccccc" class="st1" d="M286.7,81.9L70.5,246.5h43.2v264.1h129.7h89.4h126.8V246.5
	h43.2L286.7,81.9L286.7,81.9L286.7,81.9z"/>
<g id="g5004" transform="matrix(1.4559912,0,0,1.4559912,-376.41212,64.28652)">
	<g>
		<path id="text2413_6_" sodipodi:nodetypes="ccccsccccsccsccssscccccccsccccssscccssscc" class="st2" d="M458.4,160.1
			c0.1,0.1,0.7,0.2,1.8,0.4c16.6,2.7,31.8,7.7,40.1,15c8.3,7.2,12.4,16.7,12.4,28.5c0,12.1-4.5,22.4-13.6,31.2
			c-9.1,8.8-24.6,13.5-40.7,14.4l-6.8,8.9h-3.3v-8.8c-16.4-1.6-29-6.1-37.9-13.5c-8.8-7.4-13.8-17.9-14.9-31.4l21.8-3.3
			c1.7,10.1,5.1,17.9,10.2,23.4s12.1,8.5,20.7,9.3v-58.6c-16.3-3-28.6-8-36.8-15.1c-8.2-7.1-12.2-16.1-12.2-27.2
			c0-11,4-20.5,12.1-28.3c8-7.9,20.3-12.4,36.9-13.6v-8.8h10v8.8c13.6,1.2,27.4,4.9,35.3,11.1s12.9,14.9,14.9,26.1l-22.7,2.8
			c-1.3-6.9-4-12.4-8-16.6c-4.1-4-12.5-6.7-19.5-7.8v53.2H458.4z M448.3,157.9v-51.2c-8.8,1.3-15.5,4.3-20.2,9
			c-4.6,4.6-7.1,10.1-7.1,16.2c0,7.1,2.4,12.5,7.3,16.7C433.2,152.6,439.9,155.7,448.3,157.9L448.3,157.9z M458.4,234.2
			c8.4-1.1,18.4-4.3,23.9-9.4s8.2-11.7,8.2-19.5c0-6.9-2.1-12.4-6.2-16.7c-4.1-4.1-14.7-7.8-25.8-10.7V234.2z"/>
	</g>
	<g>
		<path id="text2413_5_" sodipodi:nodetypes="ccccsccccsccsccssscccccccsccccssscccssscc" class="st3" d="M458.4,160.1
			c0.1,0.1,0.7,0.2,1.8,0.4c16.6,2.7,31.8,7.7,40.1,15c8.3,7.2,12.4,16.7,12.4,28.5c0,12.1-4.5,22.4-13.6,31.2
			c-9.1,8.8-24.6,13.5-40.7,14.4l-6.8,8.9h-3.3v-8.8c-16.4-1.6-29-6.1-37.9-13.5c-8.8-7.4-13.8-17.9-14.9-31.4l21.8-3.3
			c1.7,10.1,5.1,17.9,10.2,23.4s12.1,8.5,20.7,9.3v-58.6c-16.3-3-28.6-8-36.8-15.1c-8.2-7.1-12.2-16.1-12.2-27.2
			c0-11,4-20.5,12.1-28.3c8-7.9,20.3-12.4,36.9-13.6v-8.8h10v8.8c13.6,1.2,27.4,4.9,35.3,11.1s12.9,14.9,14.9,26.1l-22.7,2.8
			c-1.3-6.9-4-12.4-8-16.6c-4.1-4-12.5-6.7-19.5-7.8v53.2H458.4z M448.3,157.9v-51.2c-8.8,1.3-15.5,4.3-20.2,9
			c-4.6,4.6-7.1,10.1-7.1,16.2c0,7.1,2.4,12.5,7.3,16.7C433.2,152.6,439.9,155.7,448.3,157.9L448.3,157.9z M458.4,234.2
			c8.4-1.1,18.4-4.3,23.9-9.4s8.2-11.7,8.2-19.5c0-6.9-2.1-12.4-6.2-16.7c-4.1-4.1-14.7-7.8-25.8-10.7V234.2z"/>
	</g>
</g>
<path id="path4370" sodipodi:nodetypes="cc" class="st4" d="M278.5,192.6v209.7"/>
</svg>
