<?xml version="1.0" encoding="utf-8"?>
<!-- Generator: Adobe Illustrator 24.1.1, SVG Export Plug-In . SVG Version: 6.00 Build 0)  -->
<svg version="1.1"
	 id="Layer_1" xmlns:inkscape="http://www.inkscape.org/namespaces/inkscape" xmlns:sodipodi="http://sodipodi.sourceforge.net/DTD/sodipodi-0.dtd"
	 xmlns="http://www.w3.org/2000/svg" xmlns:xlink="http://www.w3.org/1999/xlink" x="0px" y="0px" viewBox="0 0 580 580"
	 style="enable-background:new 0 0 580 580;" xml:space="preserve">
<style type="text/css">
	.st0{fill:#D14600;stroke:#EEEEEE;stroke-width:3.408;}
	.st1{fill-rule:evenodd;clip-rule:evenodd;fill:#FFFFFF;}
</style>
<g id="g1327">
	<path id="path1329" class="st0" d="M80.2,19.3C41,19.3,19,39.5,19,80.9V507c0,38.7,19.8,59,59,59H506c39.2,0,59-19.3,59-59V80.9
		c0-40.3-19.8-61.6-60.2-61.6C504.8,19.3,80.1,19.1,80.2,19.3z"/>
</g>
<path id="path1897" class="st1" d="M253.3,123.4c-8,0-16,5.8-16,15.1L237,437h16.5l0.1,23.7l151.6-0.1l0.1-23.5l14.1,0.1V135.4
	c0-6.4-3.8-12-10.8-12L253.3,123.4L253.3,123.4z M278.6,156.3H378c5.5,0,9.8,2.3,9.8,9.8v78.5c0,5.3-2.9,9.1-8.9,9.1l-100-0.3
	c-5.8,0-10.8-4.3-10.8-10.5l0.5-77.2C268.7,159.7,273,156.3,278.6,156.3z"/>
<path id="path1899" class="st1" d="M238,226l-15.1-0.1c-0.1,61.7,0.4,183.6,0.6,185.6c0.5,4.5,0.3,9-0.9,13.3
	c-23.8,60-100.8,32.4-89.9-25.9c24-57.8,57.7-97,74.3-165.2l1.5,50.7c-15,29.3-41.7,80.9-62.3,123.9c-1.8,39.8,45.6,52.8,60.3,10.1
	c6.6-74.7-0.3-156.1-0.4-234.2c9.6-28.7,20.3-31.3,31-30"/>
</svg>
