<?xml version="1.0" encoding="utf-8"?>
<!-- Generator: Adobe Illustrator 24.1.1, SVG Export Plug-In . SVG Version: 6.00 Build 0)  -->
<svg version="1.1"
	 id="Layer_1" xmlns:inkscape="http://www.inkscape.org/namespaces/inkscape" xmlns:sodipodi="http://sodipodi.sourceforge.net/DTD/sodipodi-0.dtd"
	 xmlns="http://www.w3.org/2000/svg" xmlns:xlink="http://www.w3.org/1999/xlink" x="0px" y="0px" viewBox="0 0 580 580"
	 style="enable-background:new 0 0 580 580;" xml:space="preserve">
<style type="text/css">
	.st0{fill:#0065AA;stroke:#EEEEEE;stroke-width:3.408;}
	.st1{fill:none;}
	.st2{fill:#FFFFFF;}
</style>
<g id="g1327">
	<path id="path1329" class="st0" d="M92.5,37c-36.3,0-56.6,18.8-56.6,57.1v394.4c0,35.8,18.3,54.5,54.5,54.5h396
		c36.2,0,54.5-17.8,54.5-54.5V94.1c0-37.3-18.3-56.9-55.7-56.9C485.2,37,92.4,36.9,92.5,37z"/>
</g>
<path id="path4151" shape-rendering="auto" color-rendering="auto" image-rendering="auto" class="st1" d="M179,127
	c-5.5,0-10,4.5-10,10v316.9c0,4.6,3.1,8.6,6.7,9.3l45.4,0.7c5.5,0,10-4.5,10-10V334.8H302c46.4,0,80.3-9.4,99.6-30.5
	c19.3-21.1,28.9-46.8,28.9-75.9c0-16.8-3.5-32.9-10.6-47.4c-7-14.4-16.6-26.1-28.6-34.4c-12-8.2-26.4-13.6-43.1-16.4
	c-12.2-2.1-28.5-3.2-49.8-3.2H179z M231.3,184.4h70.8c18.6,0,31.5,1.2,36.5,2.5c8.7,2.5,15.4,7,20.8,14.8c5.4,7.6,8.2,16.8,8.2,28.3
	c0,16.2-4.6,27-13.6,35.1c-8.8,7.6-25.6,12.7-51.3,12.7h-71.3v-93.3H231.3z"/>
<path id="path4136" class="st2" d="M179,127c-5.5,0-10,4.5-10,10v316.9c0,4.6,3.1,8.6,6.7,9.3l45.4,0.7c5.5,0,10-4.5,10-10V334.8
	H302c46.4,0,80.3-9.4,99.6-30.5c19.3-21.1,28.9-46.8,28.9-75.9c0-16.8-3.5-32.9-10.6-47.4c-7-14.4-16.6-26.1-28.6-34.4
	c-12-8.2-26.4-13.6-43.1-16.4c-12.2-2.1-28.5-3.2-49.8-3.2H179z M231.3,184.4h70.8c18.6,0,31.5,1.2,36.5,2.5
	c8.7,2.5,15.4,7,20.8,14.8c5.4,7.6,8.2,16.8,8.2,28.3c0,16.2-4.6,27-13.6,35.1c-8.8,7.6-25.6,12.7-51.3,12.7h-71.3v-93.3H231.3z"/>
</svg>
