<?xml version="1.0" encoding="utf-8"?>
<!-- Generator: Adobe Illustrator 24.1.1, SVG Export Plug-In . SVG Version: 6.00 Build 0)  -->
<svg version="1.1"
	 id="Layer_1" xmlns:inkscape="http://www.inkscape.org/namespaces/inkscape" xmlns:sodipodi="http://sodipodi.sourceforge.net/DTD/sodipodi-0.dtd"
	 xmlns="http://www.w3.org/2000/svg" xmlns:xlink="http://www.w3.org/1999/xlink" x="0px" y="0px" viewBox="0 0 580 580"
	 style="enable-background:new 0 0 580 580;" xml:space="preserve">
<style type="text/css">
	.st0{fill:#D30000;stroke:#EEEEEE;stroke-width:3.408;}
	.st1{fill:#FFFFFF;stroke:#FFFFFF;stroke-width:9.5;stroke-linecap:round;stroke-linejoin:round;}
	.st2{fill-rule:evenodd;clip-rule:evenodd;fill:#FFFFFF;}
	.st3{opacity:0.1;fill-rule:evenodd;clip-rule:evenodd;fill:#FFFFFF;enable-background:new    ;}
</style>
<g id="g1327">
	<path id="path1329" class="st0" d="M93.7,27.1c-36.6,0-57.1,19.1-57.1,58.4v404.1c0,36.7,18.5,55.8,55.1,55.8h400.3
		c36.6,0,55.1-18.2,55.1-55.8V85.5c0-38.3-18.5-58.4-56.2-58.4C490.6,27.1,93.5,26.9,93.7,27.1z"/>
</g>
<path id="path3575" class="st1" d="M289.5,47.9c-21.7,0-39.8,14-58,24.2c-20.9,11.1-44.9,15.9-68.4,14.5c-7.1,0.3-17.8,0.3-19.9,8.9
	c-1.9,8.9,7,14.3,11.2,20.6c10.1,12,20.4,23.8,31.2,35.3c1.7-2.3,8.4-3.9,4.3-6.7c-11.9-14.5-25.5-27.7-35.9-43.2
	c-0.9-6.5,6.9-7.9,11.6-7.4c18.2-0.1,37.4,0.9,53.9-8.1c24.3-11.2,46.8-30.4,74.8-30.6c26.9,0.5,49,18.2,72,30.4
	c16.3,9.3,34.4,16,53.3,15.4c6.2,0.5,14-0.9,18.5,4.3c2.6,6.5-5,9.7-8.1,14.1c-10.5,10.6-20.9,21.1-31.4,31.7
	c2.6,1.2,5.3,6.6,7.6,4.3c14.2-14.9,29.9-28.6,42.8-44.7c2.1-5.7-0.5-13.7-7.4-14.1c-15.9-3.6-32.7-1.8-48.5-6.7
	c-30-8.1-52.9-32.8-83.1-40.2C303.2,48,296.4,47.7,289.5,47.9z M111.9,125.4c-6.6-0.1-8.4,7.9-8.3,13.2c-1.6,15.8-1,32.3-7.6,46.9
	c-11,31.2-36.3,56.5-39.7,90.4c-2.2,23.5,9.3,44.9,19.9,64.8c11.9,22.6,22.2,47.7,19.8,73.9c-0.4,7.2-0.3,17.8,7.4,21.1
	c6.7,1.8,11.2-5,16.5-8c13.3-10,25.7-21.1,38-32.3c-2.5-2.1-4.3-9.3-7.5-4.4c-13.3,11.1-25.9,23.4-39.9,33.5
	c-6.2,0.9-7.5-6.9-6.7-11.5c0.4-15.8,0.1-32.1-7.1-46.3c-11.6-27.4-31.7-52.4-33-83.2c-0.1-28.3,17.8-51.8,30.6-75.6
	c9.3-16.3,16.2-34.3,15.6-53.4c0.5-5.6-1.2-13.6,4.3-16.9c6.6-1.8,9.8,6.1,14.3,9.3c10.3,10.2,20,20.9,30.6,30.9
	c2.3-3.1,7.4-6.2,1.9-9c-14.5-14.7-28.1-30.4-44.3-43.2C115.1,125.4,113.6,125.4,111.9,125.4L111.9,125.4z M472.7,135.6
	c-6.5,3.2-10.3,10-16.3,14.1c-10.2,9.6-20.7,18.9-30.6,28.7c2.5,1.7,4,8.8,6.9,4.8c13.4-11.9,25.7-25.3,40.2-35.9
	c6.1-1.4,7.9,6.3,7,10.9c-0.4,16.7,0.4,34,8.1,49.1c11.5,27.9,30.6,54,31.7,85.2c-0.8,27.1-18.4,49.4-30.9,72.1
	c-9,15.4-15.6,32.8-15,51.1c-0.6,5.8,0.9,14.1-4.7,17.7c-6.5,2.2-10.2-5.4-14.6-8.7c-9.7-9.3-19.3-18.6-29-28.1c-1,2.6-7,5.3-3,7.5
	c15.1,14.1,28.7,30,45.1,42.3c6.9,1.2,11.8-5.8,11.5-12.2c2.2-14.7,1-30.2,6.9-44.2c9.2-28.8,31.3-51.6,38.8-80.9
	c4.8-20.8-0.3-42.8-10.1-61.4c-13.1-27.7-29.3-56.2-27.8-88c-0.4-7.8,0.6-17.2-5.3-23.1C479,135.3,475.8,135.6,472.7,135.6
	L472.7,135.6z M173.4,420.9c-12.8,14.7-28.4,26.6-39.3,42.9c-2.2,7.1,4.7,13.6,11.5,13.2c14.6,1.9,30,0.8,43.8,6.9
	c27,8.9,48.9,29.7,76.3,37.9c23.7,6.3,48.9,1,69.7-11.4c25.7-12.7,52.9-26.8,82.3-24.8c7.1-0.4,15.6,0.3,21.2-4.8
	c2.6-5.3,1.2-11.6-3.5-15.3c-11.8-14.2-24.7-27.8-36.7-41.9c-1.2,2.1-8.7,4-4.7,5.9c11.4,13.3,24.6,25.7,34.9,40.1
	c2.3,5.9-5.2,8.9-9.8,8.1c-19.9-1.4-39.9,2.1-57.8,11.4c-25.3,12-50.9,29.3-80.1,27.5c-29.5-2.1-52.4-23-77.9-35.5
	c-13.7-7.1-29-10.3-44.3-10.2c-4.9,0-13.3,0.4-13.6-6.5c1-6.2,7.6-9,10.9-13.8c9.2-9.7,18.4-19.4,27.5-29c-3-1.6-5.8-7.8-8.4-2.7
	C174.7,419.6,174.1,420.3,173.4,420.9L173.4,420.9z"/>
<g id="g5215" transform="matrix(1.0478814,0,0,1.0478814,-14.016475,-23.016508)">
	<path id="path4356" sodipodi:nodetypes="cscccccccccccc" class="st2" d="M210.8,411.8c-24.7-14.1-39.8-47.2-28.7-96.6
		c7.8-34.6,30.5-77.4,13.1-113c21.2,14.9,43.2,50,65.3,89.8c1.6-43-20.6-71.2-4.7-129.9c10.9,72.6,54.4,77.2,76.5,143.4
		c9.4-31.2,29-41.4,19.4-118.5c96.2,133.1,41.4,180.5,22.1,228l6.2-66.2c-30.1,88.4-54.3,104.7-76.1,124.5
		c12.2-41.5,17.1-83-7.8-124.5c-6.1,68.1-23,53.9-26.4,108.7c-34-26-41-52.6-47.1-96C218.2,366.6,210.4,387.8,210.8,411.8
		L210.8,411.8z"/>
	<path id="path4358" sodipodi:nodetypes="ccc" class="st2" d="M281.2,94.1c-25.2,103.5,20.8,102.6,46.3,163.4
		C345.3,163.6,291.8,184.8,281.2,94.1z"/>
</g>
<path id="path6053" class="st3" d="M108.9,130.1L104,170l-13.3,34.9l-23.9,45l-9.2,33.5l15.5,44.2L95,371.2l9.2,60l50-39.3l26,28.6
	L137.2,466l7.8,7.1l28.8,2.8l26.8,7.1l45.8,27.1l32.4,10l31-4.3l39.4-17.8l34.5-13.6l37.4-5l16.2-10l-40.1-42.1l28.8-27.1l42.9,41.4
	l7.8-12.8l4.3-38.5l19-37.1l20.4-39.3l4.9-27.8l-12.7-35.7l-21.1-39.9l-8.4-40.7l-3.5-31.4L455,157l-25.3,22.9l-25.3-27.8l40.1-44.2
	l-8.4-9.3l-38-4.3L362,80.1L322.6,58l-28.8-6.5l-34.5,7.9l-33.1,20l-30.2,9.3l-47.8,3.6v8.5l40.8,47.1l-29.6,25.7L108.9,130.1
	L108.9,130.1z"/>
</svg>
