<?xml version="1.0" encoding="utf-8"?>
<!-- Generator: Adobe Illustrator 24.1.1, SVG Export Plug-In . SVG Version: 6.00 Build 0)  -->
<svg version="1.1"
	 id="Layer_1" xmlns:inkscape="http://www.inkscape.org/namespaces/inkscape" xmlns:sodipodi="http://sodipodi.sourceforge.net/DTD/sodipodi-0.dtd"
	 xmlns="http://www.w3.org/2000/svg" xmlns:xlink="http://www.w3.org/1999/xlink" x="0px" y="0px" viewBox="0 0 580 580"
	 style="enable-background:new 0 0 580 580;" xml:space="preserve">
<style type="text/css">
	.st0{fill:#3479B7;stroke:#EEEEEE;stroke-width:3.408;}
	.st1{fill:#FFFFFF;}
</style>
<g id="g1327">
	<path id="path1329" class="st0" d="M88.8,28.1c-37.7,0-58.9,19.5-58.9,59.3v410.8c0,37.3,19.1,56.8,56.8,56.8h412.5
		c37.7,0,56.8-18.5,56.8-56.8V87.4c0-38.9-19.1-59.3-57.9-59.3C498.1,28.1,88.7,27.9,88.8,28.1z"/>
</g>
<path id="path4138" class="st1" d="M196.8,216.3c-124,172.9-75.2,261.6-55.3,275.2L222,375.6c-16.3-10.8-7.3-30.7,14.4-69.7
	c14.4-25.4,34.4-55.3,57.9-82.3c16.3-19.1,34.4-37.2,50.6-25.4l82.3-117.8c-5.5-3.5-17.3-7.2-33.5-6.3
	C352.5,73.9,281,98.6,196.8,216.3z"/>
<path id="path4142" class="st1" d="M354.3,204.5l36.2,25.4c3.6,2.7,13.6,0.8,15.8-2.7l66.5-95.9c5.5-7.3,3.6-17.3-3.6-21.7
	l-32.5-22.9L354.3,204.5z"/>
<path id="path4144" class="st1" d="M150.7,497.8l36.2,25.4c3.6,2.7,13.6,0,15.8-3.6l64.7-93.3c5.5-7.3,2.7-16.3-3.6-21.7l-32.5-22.6
	L150.7,497.8z"/>
</svg>
