<?xml version="1.0" encoding="utf-8"?>
<!-- Generator: Adobe Illustrator 24.1.1, SVG Export Plug-In . SVG Version: 6.00 Build 0)  -->
<svg version="1.1"
	 id="Layer_1" xmlns:inkscape="http://www.inkscape.org/namespaces/inkscape" xmlns:sodipodi="http://sodipodi.sourceforge.net/DTD/sodipodi-0.dtd"
	 xmlns="http://www.w3.org/2000/svg" xmlns:xlink="http://www.w3.org/1999/xlink" x="0px" y="0px" viewBox="0 0 580 580"
	 style="enable-background:new 0 0 580 580;" xml:space="preserve">
<style type="text/css">
	.st0{fill:#734A08;stroke:#EEEEEE;stroke-width:3.408;}
	.st1{fill:#FFFFFF;}
</style>
<g id="g1327">
	<path id="path1329" class="st0" d="M84.9,22.1C46.5,22.1,25,41.8,25,82.5v417.8c0,38,19.4,57.7,57.7,57.7h419.5
		c38.4,0,57.7-18.8,57.7-57.7V82.5c0-39.6-19.4-60.4-59-60.4C501,22.1,84.8,21.9,84.9,22.1z"/>
</g>
<path id="flowRoot3192" sodipodi:nodetypes="ccccccccccssccccccsccccsccccccssccccccssssssscccsccssscccccsccsccccsccccsccccsccccc" class="st1" d="
	M285.7,496.1h33.2V77.2h-33.2V496.1z M185.7,153.8h-67c-10.5,0-19.9,3.8-28.3,11.3c-6.3,5.8-10.5,12.4-12.5,19.4l-28.8,96
	c-0.8,2.2-1.2,4-1.2,5.7c0,9.6,4.8,14.4,14.4,14.4c6.7,0,11-3.8,13.2-11.3l26.4-87.8h14.4L73,357.6h42v121.7
	c0,10.9,5.2,16.3,15.6,16.3c10.5,0,15.6-5.4,15.6-16.3V357.1H162v122.9c0,10.5,5.2,15.6,15.6,15.6c10.5,0,15.6-5.2,15.6-15.6V357.6
	h42l-43.9-156.1h15.1l26.4,87.8c2.2,7.5,6.5,11.3,13.2,11.3c9.6,0,14.4-4.8,14.4-14.4c0-2.2-0.4-4-1.2-5.7l-28.8-96
	c-2.2-6.7-6.9-13.2-14.4-19.4C206.7,157.6,196.6,153.8,185.7,153.8L185.7,153.8z M153.8,146.8c9.6,0,17.8-3.4,24.5-10.1
	c6.7-6.7,10.1-14.7,10.1-23.8c0-9.6-3.4-17.8-10.1-24.5c-6.7-6.7-14.8-10.1-24.5-10.1c-9.2,0-17.1,3.4-23.8,10.1
	c-6.7,6.7-10.1,14.8-10.1,24.5c0,9.2,3.4,17.1,10.1,23.8C136.6,143.5,144.5,146.8,153.8,146.8L153.8,146.8z M447.1,146.3
	c9.2,0,17.1-3.4,23.8-10.1c6.7-6.7,10.1-14.7,10.1-23.8c0-9.6-3.4-17.6-10.1-24.1c-6.7-6.5-14.7-9.7-23.8-9.7
	c-9.2,0-17.1,3.2-23.8,9.7s-10.1,14.5-10.1,24.1c0,9.2,3.4,17.1,10.1,23.8C430,142.9,437.9,146.3,447.1,146.3L447.1,146.3z
	 M491.6,153.2H402c-12.1,0-22.5,4.3-31.1,12.9c-8.6,8.6-12.9,19.1-12.9,31.6v104c0,10.1,4.6,15.1,13.9,15.1c8.7,0,13.2-5,13.2-15.1
	V200.1h16.3V476c0,12.5,6.3,18.8,18.8,18.8c12.5,0,18.8-6.3,18.8-18.8V316.1h16.3V476c0,12.5,6.3,18.8,18.8,18.8
	c12.9,0,19.4-6.3,19.4-18.8V200.1h15.6v101.6c0,10.5,4.4,15.6,13.2,15.6c8.7,0,13.2-5.2,13.2-15.6V198.2c0-12.1-4-22.6-12.2-31.6
	C515.2,157.6,504.5,153.2,491.6,153.2L491.6,153.2z"/>
</svg>
