<?xml version="1.0" encoding="utf-8"?>
<!-- Generator: Adobe Illustrator 24.1.1, SVG Export Plug-In . SVG Version: 6.00 Build 0)  -->
<svg version="1.1"
	 id="Layer_1" xmlns:inkscape="http://www.inkscape.org/namespaces/inkscape" xmlns:sodipodi="http://sodipodi.sourceforge.net/DTD/sodipodi-0.dtd"
	 xmlns="http://www.w3.org/2000/svg" xmlns:xlink="http://www.w3.org/1999/xlink" x="0px" y="0px" viewBox="0 0 580 580"
	 style="enable-background:new 0 0 580 580;" xml:space="preserve">
<style type="text/css">
	.st0{fill:#0EBF00;stroke:#EEEEEE;stroke-width:3.408;}
	.st1{fill:none;stroke:#FFFFFF;stroke-width:21.6323;stroke-miterlimit:3.4419;}
	.st2{fill:#FFFFFF;stroke:#FFFFFF;stroke-width:20;stroke-linejoin:round;}
</style>
<g id="g1327">
	<path id="path1329" class="st0" d="M87.3,32.1C49.9,32.1,29,51.4,29,91v407.1c0,36.9,18.9,56.3,56.2,56.3H494
		c37.3,0,56.3-18.4,56.3-56.3V90.8c0-38.6-18.9-58.8-57.5-58.8C492.8,32.1,87.2,32,87.3,32.1z"/>
</g>
<path id="path2207" sodipodi:cx="217.14285" sodipodi:cy="305.71429" sodipodi:rx="288.57144" sodipodi:ry="288.57144" sodipodi:type="arc" class="st1" d="
	M512,289.1c0,124-100.6,224.5-224.5,224.5S62.9,413,62.9,289.1S163.4,64.5,287.4,64.5S512,165.1,512,289.1z"/>
<rect id="rect3180" x="123.6" y="252.1" class="st2" width="327.6" height="74"/>
<rect id="rect3182" x="250.4" y="125.2" class="st2" width="74" height="327.6"/>
</svg>
