<?xml version="1.0" encoding="utf-8"?>
<!-- Generator: Adobe Illustrator 25.0.0, SVG Export Plug-In . SVG Version: 6.00 Build 0)  -->
<svg version="1.1" id="Layer_1" xmlns="http://www.w3.org/2000/svg" xmlns:xlink="http://www.w3.org/1999/xlink" x="0px" y="0px"
	 viewBox="0 0 580 580" style="enable-background:new 0 0 580 580;" xml:space="preserve">
<style type="text/css">
	.st0{opacity:0.8;fill:none;stroke:#FFFFFF;stroke-width:64;stroke-linejoin:round;enable-background:new    ;}
	.st1{fill:#007AA0;}
</style>
<path id="path4137" shape-rendering="auto" image-rendering="auto" color-rendering="auto" class="st0" d="M256,65.6
	c-2.1-4.9-3.4-10-8.8-12.7c-40-5.9-48,104-51,141c10.2-33.6,39.6-163,50.7-111c-5.4,14-14.8,50-9.5,101c4.9-26.4,7.1-53.8,14.7-80
	c10.8,58.9,17,123,20.4,175c-5.4-22.5-8.4-53.7-22.4-65c-6.3-3.8-18,3.9-21,8c-8.9-7.6-17.2-13.4-31.4-7.2
	c-7.8-2.4-16.2-4.3-23.6-1.9C78,206,45,393,34,466c35-97,49-180,107-229c-39,71-45,106-64,226c37-96,49-221,101-229
	c-39,62-51.8,164-54.6,234c21-78,30-171,71.8-226c7.9,6.1,14.6,13.6,20.5,21.8c-12.3,67-21,135-20.8,203c15-62,18.2-125,30.7-187
	c29.7,67,36,137,47,194c-76-5.4-140,43-209,40.8c0.8,6-3.9,14,6.5,14h439c10.4,0.1,5.7-8,6.5-14c-68,2.3-133-46-209-40.8
	c11.3-57,17.7-128,47-194c12.5,62,15.6,126,30.7,187c0.2-68-8.5-136-20.8-203c5.9-8.2,12.6-15.7,20.5-21.8
	c41.5,56,50.6,148,71.8,226c-2.8-69.9-15.4-172-54.6-234c51,8.1,64,133,101,230c-19-120-25-155-64-227c58,48.8,71.8,132,107,229
	c-10.9-73-43-259-140-252c-7.4-2.3-15.8-0.5-23.6,1.9c-14.2-6.2-22.4-0.4-31.4,7.2c-3-4.2-14.9-11.8-21-8c-14,11.3-17,42.6-22.4,65
	c3.3-52,9.6-116,20.4-175c7.5,25.8,9.8,53,14.7,80c5.3-51-4.1-87-9.5-101c11.2-52,40.5,78,50.7,111c-2.9-37.6-10.8-147-51-141
	c-5.4,2.7-6.8,7.8-8.9,12.7c-2.3-5.5-4.6-13-12-13.7C302,54,295,69,290,92c-5-23-12-38-22-40.1C260.5,52.6,258.2,60.1,256,65.6z
	 M279,188c2-13-22-107-16.1-106.2C271,80.9,279,170,279,188z M301,188c0-18,8-107.1,16-106C321,81,305,157,301,188z M244,232
	c16.9,22,22.7,74,25.7,101c-9.9-34-15.9-66.8-29.9-97C241,234.5,243.1,232.5,244,232L244,232z M341.2,235.4c-14,30.6-20,63-29.9,97
	c3-26,8.8-79,25.7-100.7C338.5,232,339.9,233.3,341.2,235.4L341.2,235.4z M251.9,299.3c-6.4-17.4-11.2-33.6-18.8-48
	c0.2-1.1,0.6-1.6,0.9-1.6C238,249.1,250,291.6,251.9,299.3L251.9,299.3z M349.1,251.3c-7.6,14.5-12.4,30.7-18.8,48
	c1.9-7.4,13.9-50,17.9-49.7C348.5,249.8,348.8,250.3,349.1,251.3L349.1,251.3z"/>
<path id="path4151" class="st1" d="M256,65.6c-2.1-4.9-3.4-10-8.8-12.7c-40-5.9-48,104-51,141c10.2-33.6,39.6-163,50.7-111
	c-5.4,14-14.8,50-9.5,101c4.9-26.4,7.1-53.8,14.7-80c10.8,58.9,17,123,20.4,175c-5.4-22.5-8.4-53.7-22.4-65c-6.3-3.8-18,3.9-21,8
	c-8.9-7.6-17.2-13.4-31.4-7.2c-7.8-2.4-16.2-4.3-23.6-1.9C78,206,45,393,34,466c35-97,49-180,107-229c-39,71-45,106-64,226
	c37-96,49-221,101-229c-39,62-51.8,164-54.6,234c21-78,30-171,71.8-226c7.9,6.1,14.6,13.6,20.5,21.8c-12.3,67-21,135-20.8,203
	c15-62,18.2-125,30.7-187c29.7,67,36,137,47,194c-76-5.4-140,43-209,40.8c0.8,6-3.9,14,6.5,14h439c10.4,0.1,5.7-8,6.5-14
	c-68,2.3-133-46-209-40.8c11.3-57,17.7-128,47-194c12.5,62,15.6,126,30.7,187c0.2-68-8.5-136-20.8-203c5.9-8.2,12.6-15.7,20.5-21.8
	c41.5,56,50.6,148,71.8,226c-2.8-69.9-15.4-172-54.6-234c51,8.1,64,133,101,230c-19-120-25-155-64-227c58,48.8,71.8,132,107,229
	c-10.9-73-43-259-140-252c-7.4-2.3-15.8-0.5-23.6,1.9c-14.2-6.2-22.4-0.4-31.4,7.2c-3-4.2-14.9-11.8-21-8c-14,11.3-17,42.6-22.4,65
	c3.3-52,9.6-116,20.4-175c7.5,25.8,9.8,53,14.7,80c5.3-51-4.1-87-9.5-101c11.2-52,40.5,78,50.7,111c-2.9-37.6-10.8-147-51-141
	c-5.4,2.7-6.8,7.8-8.9,12.7c-2.3-5.5-4.6-13-12-13.7C302,54,295,69,290,92c-5-23-12-38-22-40.1C260.5,52.6,258.2,60.1,256,65.6z
	 M279,188c2-13-22-107-16.1-106.2C271,80.9,279,170,279,188z M301,188c0-18,8-107.1,16-106C321,81,305,157,301,188z M244,232
	c16.9,22,22.7,74,25.7,101c-9.9-34-15.9-66.8-29.9-97C241,234.5,243.1,232.5,244,232L244,232z M341.2,235.4c-14,30.6-20,63-29.9,97
	c3-26,8.8-79,25.7-100.7C338.5,232,339.9,233.3,341.2,235.4L341.2,235.4z M251.9,299.3c-6.4-17.4-11.2-33.6-18.8-48
	c0.2-1.1,0.6-1.6,0.9-1.6C238,249.1,250,291.6,251.9,299.3L251.9,299.3z M349.1,251.3c-7.6,14.5-12.4,30.7-18.8,48
	c1.9-7.4,13.9-50,17.9-49.7C348.5,249.8,348.8,250.3,349.1,251.3L349.1,251.3z"/>
</svg>
