<?xml version="1.0" encoding="utf-8"?>
<!-- Generator: Adobe Illustrator 24.1.1, SVG Export Plug-In . SVG Version: 6.00 Build 0)  -->
<svg version="1.1"
	 id="Layer_1" xmlns:inkscape="http://www.inkscape.org/namespaces/inkscape" xmlns:sodipodi="http://sodipodi.sourceforge.net/DTD/sodipodi-0.dtd"
	 xmlns="http://www.w3.org/2000/svg" xmlns:xlink="http://www.w3.org/1999/xlink" x="0px" y="0px" viewBox="0 0 580 580"
	 style="enable-background:new 0 0 580 580;" xml:space="preserve">
<style type="text/css">
	.st0{fill:#0092DA;stroke:#EEEEEE;stroke-width:3.408;}
	.st1{fill:#FFFFFF;}
	.st2{fill:none;stroke:#FFFFFF;stroke-width:12.867;stroke-linecap:round;}
	
		.st3{fill-rule:evenodd;clip-rule:evenodd;fill:#FFFFFF;stroke:#FFFFFF;stroke-width:22.944;stroke-linecap:round;stroke-linejoin:round;}
	.st4{fill:#FFFFFF;stroke:#FFFFFF;stroke-width:25.17;stroke-linecap:round;stroke-linejoin:round;}
</style>
<g id="g1327">
	<path id="path1329" class="st0" d="M85.1,27.1C46.6,27.1,25,47,25,87.6v419.4c0,38.1,19.5,57.9,57.9,57.9h421.2
		c38.5,0,57.9-19,57.9-57.9V87.8c0-39.7-19.5-60.6-59.1-60.6C503,27.1,85,26.9,85.1,27.1z"/>
</g>
<path id="flowRoot3192" sodipodi:nodetypes="cccsccscccccsssccccccccccscccccccsscsssscccccccccccc" class="st1" d="M295.9,450
	l9.7,79.3c1.2,8.7,6.4,13.7,15.6,15.1c6.4,0.8,11.9-1,16.7-5.4c4.7-4.5,6.7-9.9,5.8-16.2l-11.4-90.1c-1.2-6.7-5.2-10.6-9.1-16
	l-29.5-41.2l28.5-49.8l14.3,18.1c1.2,1.7,2.9,3,5.2,3.9l32.2,15.6c1.5,0.6,2.8,0.8,3.9,0.8c4,0,7.5-1.6,10.4-4.7
	c2.9-3.1,4.4-6.8,4.4-10.9c0-7.3-3.5-12-10.4-14.3l-24.8-13.9l-35.6-42.9c-5-5.8-11.9-9.4-20.8-10.9c-15.6-2.3-27.3,3.1-35.1,16.4
	l-39.3,68.2c-2.5,4.4-3.7,9.7-3.5,16l1.3,86.2l-29.9,64.1c-1.2,2.5-1.8,4.7-2.2,6.5c-0.8,5.4,0.2,10.3,3.5,14.5
	c3.1,4.2,7.5,6.8,12.9,7.6c9.2,1.5,15.7-1.7,19.5-9.6l32.9-70.1c1.2-2.5,1.7-5.3,1.7-8.2l-0.5-53.3L295.9,450z M318.9,262.9
	c7.7,0,14.6-2.8,20.3-8.5c5.8-5.7,8.7-12.5,8.7-20.6c0-7.7-2.9-14.6-8.7-20.3c-5.8-5.8-12.6-8.7-20.3-8.7c-8.1,0-15,2.9-20.6,8.7
	c-5.7,5.8-8.5,12.6-8.5,20.3c0,8.1,2.8,14.9,8.5,20.6C303.9,260,310.8,262.9,318.9,262.9L318.9,262.9z M217.5,342.1l43.3-74.5
	c2.9-5,1.9-8.7-3-11.2l-13.9-8.2c-5-2.9-8.7-1.8-11.2,3l-43.3,74.5c-2.9,5-1.8,8.7,3,11.2l13.9,8.2
	C211.1,348,214.9,347.1,217.5,342.1L217.5,342.1z"/>
<path id="path2770" sodipodi:nodetypes="cc" class="st2" d="M376.3,361.2v168.1"/>
<g id="g3548" transform="translate(0,-94)">
	<path id="path7057" sodipodi:nodetypes="ccccccccc" class="st3" d="M52.9,280.9L292,153.5l239.1,127.5l-16,16.3L435.2,265
		L292,247.7l-143.6,16.9l-79.6,32.2L52.9,280.9z"/>
	<rect id="rect7061" x="449" y="280.2" class="st4" width="29.9" height="287.1"/>
	<rect id="rect3546" x="102.4" y="280.2" class="st4" width="29.9" height="287.1"/>
</g>
</svg>
