<?xml version="1.0" encoding="utf-8"?>
<!-- Generator: Adobe Illustrator 24.1.1, SVG Export Plug-In . SVG Version: 6.00 Build 0)  -->
<svg version="1.1"
	 id="Layer_1" xmlns:inkscape="http://www.inkscape.org/namespaces/inkscape" xmlns:sodipodi="http://sodipodi.sourceforge.net/DTD/sodipodi-0.dtd"
	 xmlns="http://www.w3.org/2000/svg" xmlns:xlink="http://www.w3.org/1999/xlink" x="0px" y="0px" viewBox="0 0 580 580"
	 style="enable-background:new 0 0 580 580;" xml:space="preserve">
<style type="text/css">
	.st0{fill:#0092DA;stroke:#EEEEEE;stroke-width:3.408;}
	.st1{fill:none;stroke:#FFFFFF;stroke-width:26.28;}
	.st2{fill-rule:evenodd;clip-rule:evenodd;fill:#FFFFFF;stroke:#FFFFFF;stroke-width:26.28;}
</style>
<g id="g1327">
	<path id="path1329" class="st0" d="M97.1,30.1C60.5,30.1,40,49,40,87.6v398.2c0,36.1,18.5,55,55,55H495c36.6,0,55-18,55-55V87.6
		c0-37.7-18.5-57.6-56.2-57.6C493.9,30.1,97,30,97.1,30.1z"/>
</g>
<path id="path2443" sodipodi:nodetypes="cccc" class="st1" d="M293.6,151.1c-1.3,7.4-172.9,326.2-172.9,326.2l345.4-0.6L293.6,151.1
	z"/>
<path id="path2383" sodipodi:nodetypes="csccc" class="st2" d="M293.6,172.4c-0.6,3.6-11.3,21.8,11.3,101.4
	c23.7,82.8,86.9,203.6,86.9,203.6l74.1-0.6L293.6,172.4z"/>
<path id="path3155" sodipodi:nodetypes="csccc" class="st2" d="M296.6,172.4c0.6,3.6,11.3,21.8-11.3,101.4
	c-23.7,82.8-86.9,203.6-86.9,203.6l-74.1-0.6L296.6,172.4z"/>
<path id="path3157" sodipodi:nodetypes="ccc" class="st1" d="M259.4,84.9L466,476.7L259.4,84.9z"/>
<path id="path3161" sodipodi:nodetypes="ccc" class="st1" d="M329.2,87.1L122.9,476.7L329.2,87.1z"/>
</svg>
