<?xml version="1.0" encoding="utf-8"?>
<!-- Generator: Adobe Illustrator 24.1.1, SVG Export Plug-In . SVG Version: 6.00 Build 0)  -->
<svg version="1.1"
	 id="Layer_1" xmlns:inkscape="http://www.inkscape.org/namespaces/inkscape" xmlns:sodipodi="http://sodipodi.sourceforge.net/DTD/sodipodi-0.dtd"
	 xmlns="http://www.w3.org/2000/svg" xmlns:xlink="http://www.w3.org/1999/xlink" x="0px" y="0px" viewBox="0 0 580 580"
	 style="enable-background:new 0 0 580 580;" xml:space="preserve">
<style type="text/css">
	.st0{fill:#0092DA;stroke:#EEEEEE;stroke-width:3.408;}
	.st1{fill-rule:evenodd;clip-rule:evenodd;fill:#FFFFFF;stroke:#FFFFFF;stroke-width:35.829;stroke-linecap:round;}
	.st2{fill-rule:evenodd;clip-rule:evenodd;fill:#FFFFFF;stroke:#FFFFFF;stroke-width:35.829;}
	.st3{fill:#FFFFFF;stroke:#FFFFFF;stroke-width:34.702;}
	.st4{fill:#FFFFFF;stroke:#FFFFFF;stroke-width:2.3;}
	.st5{fill:#FFFFFF;stroke:#FFFFFF;stroke-width:30.18;}
</style>
<g id="g1327">
	<path id="path1329" class="st0" d="M96.2,37c-36.1,0-56.4,18.7-56.4,56.8v392.8c0,35.7,18.2,54.3,54.3,54.3h394.5
		c36,0,54.3-17.8,54.3-54.3V93.9c0-37.2-18.2-56.7-55.4-56.7C487.5,37,96.1,36.9,96.2,37z"/>
</g>
<path id="path2157" inkscape:connector-curvature="0" sodipodi:nodetypes="cc" class="st1" d="M79.9,73.4l-2.8,431.7"/>
<path id="path2159" inkscape:connector-curvature="0" sodipodi:nodetypes="cc" class="st2" d="M82.7,459.1l418.7,2.8"/>
<path id="path2161" inkscape:connector-curvature="0" sodipodi:nodetypes="cc" class="st1" d="M504.2,496.8l2.8-335.5"/>
<path id="rect2163" class="st3" d="M262.2,379H410c9.4,0,16.8,7.5,16.8,16.8l0,0c0,9.4-7.5,16.8-16.8,16.8H262.2
	c-9.4,0-16.8-7.5-16.8-16.8l0,0C245.2,386.6,252.8,379,262.2,379z"/>
<path id="path2167" sodipodi:cx="7.7678571" sodipodi:cy="16.017857" sodipodi:rx="1.5178572" sodipodi:ry="1.3392857" sodipodi:type="arc" class="st4" d="
	M217.5,339.4c0,12.9-11.2,23.3-25,23.3c-13.8,0-25-10.4-25-23.3l0,0c0-12.9,11.2-23.3,25-23.3C206.3,316.1,217.5,326.5,217.5,339.4
	L217.5,339.4z"/>
<path id="rect2169" class="st5" d="M146.1,405.6h64.1c1.6,0,3,1.4,3,3l0,0c0,1.6-1.4,3-3,3h-64.1c-1.6,0-3-1.4-3-3l0,0
	C143,406.9,144.4,405.6,146.1,405.6z"/>
<path id="path2159-3" inkscape:connector-curvature="0" sodipodi:nodetypes="cc" class="st2" d="M86.8,253.4l418.7,2.8"/>
<path id="rect2163-5" class="st3" d="M266.1,174.5h147.8c9.4,0,16.8,7.5,16.8,16.8l0,0c0,9.4-7.5,16.8-16.8,16.8H266.1
	c-9.4,0-16.8-7.5-16.8-16.8l0,0C249.2,182.1,256.8,174.5,266.1,174.5z"/>
<path id="path2167-9" sodipodi:cx="7.7678571" sodipodi:cy="16.017857" sodipodi:rx="1.5178572" sodipodi:ry="1.3392857" sodipodi:type="arc" class="st4" d="
	M221.5,134.8c0,12.9-11.2,23.3-25,23.3c-13.8,0-25-10.4-25-23.3l0,0c0-12.9,11.2-23.3,25-23.3C210.3,111.5,221.5,122,221.5,134.8
	L221.5,134.8z"/>
<path id="rect2169-6" class="st5" d="M150,200.9h64.1c1.6,0,3,1.4,3,3l0,0c0,1.6-1.4,3-3,3H150c-1.6,0-3-1.4-3-3l0,0
	C147,202.3,148.4,200.9,150,200.9z"/>
</svg>
