<?xml version="1.0" encoding="utf-8"?>
<!-- Generator: Adobe Illustrator 24.1.1, SVG Export Plug-In . SVG Version: 6.00 Build 0)  -->
<svg version="1.1"
	 id="Layer_1" xmlns:inkscape="http://www.inkscape.org/namespaces/inkscape" xmlns:sodipodi="http://sodipodi.sourceforge.net/DTD/sodipodi-0.dtd"
	 xmlns="http://www.w3.org/2000/svg" xmlns:xlink="http://www.w3.org/1999/xlink" x="0px" y="0px" viewBox="0 0 580 580"
	 style="enable-background:new 0 0 580 580;" xml:space="preserve">
<style type="text/css">
	.st0{fill:#0092DA;stroke:#EEEEEE;stroke-width:3.408;}
	.st1{fill:#FFFFFF;}
</style>
<g id="g1327">
	<path id="path1329" class="st0" d="M95.6,35c-36.4,0-56.7,18.8-56.7,57.2v395.2c0,35.9,18.4,54.6,54.6,54.6h396.8
		c36.2,0,54.6-17.9,54.6-54.6V92.2c0-37.4-18.4-57.1-55.8-57.1C489.1,35,95.5,34.9,95.6,35z"/>
</g>
<path id="path4140" class="st1" d="M194.9,178.7c-23.3-0.4-44.4,17.8-44.4,42.6s21.4,43.5,44.4,43.5c23.3,0,44.4-18.1,44.4-42.7
	C239.4,197.2,217.8,179.3,194.9,178.7z"/>
<path id="path4138" class="st1" d="M111.7,205.1c-7.2,0.4-13.1,6.5-13.1,13.4l-2.5,188c-0.2,7.5,5.5,13.8,12.9,13.9
	c7.3,0.1,13.3-6,13.3-13.4l0.8-56.2l332,2.4l-0.8,46.6c-0.2,7.5,5.5,13.8,12.8,13.9c7.3,0.1,13.3-5.9,13.4-13.4l2.4-122.7
	c0.2-7.6-5.6-13.9-13.1-13.9c-7.3,0-13.1,6-13.2,13.4l-0.9,49.8l-332-2.4l1.3-104.5C125.2,210.6,118.2,204.7,111.7,205.1z"/>
<path id="path4136" class="st1" d="M263.8,252.1c-17.2,0-31.4,14.7-31.4,32.5c0,17.8,14.2,32.5,31.4,32.5h152.2
	c17.2,0,31.4-14.7,31.4-32.5c0-17.8-14.2-32.5-31.4-32.5H263.8z"/>
<path id="path4151" class="st1" d="M145.9,280.1c-8.6,0-16,7.5-16,16.5c0,8.9,7.3,16.6,16,16.6h65.8c8.6,0,16-7.5,16-16.5
	c0-8.9-7.3-16.6-16-16.6H145.9z"/>
</svg>
